<?xml version="1.0" encoding="UTF-8" standalone="no"?>
<svg
   xmlns:svgx="http://www.xml-cml.org/schema/svgx"
   xmlns:dc="http://purl.org/dc/elements/1.1/"
   xmlns:cc="http://creativecommons.org/ns#"
   xmlns:rdf="http://www.w3.org/1999/02/22-rdf-syntax-ns#"
   xmlns:svg="http://www.w3.org/2000/svg"
   xmlns="http://www.w3.org/2000/svg"
   xmlns:sodipodi="http://sodipodi.sourceforge.net/DTD/sodipodi-0.dtd"
   xmlns:inkscape="http://www.inkscape.org/namespaces/inkscape"
   width="600.0"
   height="800.0"
   stroke="none"
   stroke-width="0.0"
   id="svg2"
   version="1.1"
   inkscape:version="0.91 r13725"
   sodipodi:docname="fig2b.svg">
  <metadata
     id="metadata540">
    <rdf:RDF>
      <cc:Work
         rdf:about="">
        <dc:format>image/svg+xml</dc:format>
        <dc:type
           rdf:resource="http://purl.org/dc/dcmitype/StillImage" />
        <dc:title></dc:title>
      </cc:Work>
    </rdf:RDF>
  </metadata>
  <sodipodi:namedview
     pagecolor="#ffffff"
     bordercolor="#666666"
     borderopacity="1"
     objecttolerance="10"
     gridtolerance="10"
     guidetolerance="10"
     inkscape:pageopacity="0"
     inkscape:pageshadow="2"
     inkscape:window-width="994"
     inkscape:window-height="779"
     id="namedview538"
     showgrid="false"
     inkscape:zoom="0.71099609"
     inkscape:cx="300"
     inkscape:cy="400"
     inkscape:window-x="0"
     inkscape:window-y="0"
     inkscape:window-maximized="0"
     inkscape:current-layer="svg2" />
  <defs
     id="defs1">
    <clipPath
       id="clipPath1">
      <path
         stroke="black"
         stroke-width="0.5"
         fill="none"
         d="M0.0 0.0 L595.0 0.0 L595.0 842.0 L0.0 842.0 L0.0 0.0 Z"
         id="path6" />
    </clipPath>
  </defs>
  <text
     stroke="none"
     fill="#000000"
     clip-path="url(#clipPath1)"
     svgx:fontName="TimesNewRomanPS-BoldMT"
     svgx:width="250.0"
     x="72.0"
     y="83.16"
     font-size="12.0"
     font-family="TimesNewRoman"
     font-weight="bold"
     id="text8" />
  <text
     stroke="none"
     fill="#000000"
     clip-path="url(#clipPath1)"
     svgx:fontName="TimesNewRomanPS-BoldMT"
     svgx:width="250.0"
     x="72.0"
     y="96.96"
     font-size="12.0"
     font-family="TimesNewRoman"
     font-weight="bold"
     id="text10" />
  <text
     stroke="none"
     fill="#000000"
     clip-path="url(#clipPath1)"
     svgx:fontName="TimesNewRomanPS-BoldMT"
     svgx:width="250.0"
     x="80.638"
     y="110.76"
     font-size="12.0"
     font-family="TimesNewRoman"
     font-weight="bold"
     id="text14" />
  <text
     stroke="none"
     fill="#000000"
     clip-path="url(#clipPath1)"
     svgx:fontName="ArialMT"
     svgx:width="278.0"
     transform="matrix(0.0,-1.0,1.0,0.0,-177.64622,367.13063)"
     x="94.742"
     y="272.388"
     font-size="10.089"
     font-family="Helvetica"
     font-weight="normal"
     id="text126" />
  <text
     stroke="none"
     fill="#000000"
     clip-path="url(#clipPath1)"
     svgx:fontName="ArialMT"
     svgx:width="278.0"
     transform="matrix(0.0,-1.0,1.0,0.0,-166.36052,355.84492)"
     x="94.742"
     y="261.103"
     font-size="10.089"
     font-family="Helvetica"
     font-weight="normal"
     id="text132" />
  <text
     stroke="none"
     fill="#000000"
     clip-path="url(#clipPath1)"
     svgx:fontName="ArialMT"
     svgx:width="278.0"
     x="208.08"
     y="136.8"
     font-size="11.049"
     font-family="Helvetica"
     font-weight="normal"
     id="text190" />
  <text
     stroke="none"
     fill="#000000"
     clip-path="url(#clipPath1)"
     svgx:fontName="ArialMT"
     svgx:width="278.0"
     x="228.945"
     y="136.8"
     font-size="11.049"
     font-family="Helvetica"
     font-weight="normal"
     id="text200" />
  <text
     stroke="none"
     fill="#000000"
     clip-path="url(#clipPath1)"
     svgx:fontName="ArialMT"
     svgx:width="278.0"
     x="251.833"
     y="136.8"
     font-size="11.049"
     font-family="Helvetica"
     font-weight="normal"
     id="text210" />
  <text
     stroke="none"
     fill="#000000"
     clip-path="url(#clipPath1)"
     svgx:fontName="ArialMT"
     svgx:width="278.0"
     x="290.901"
     y="136.8"
     font-size="11.049"
     font-family="Helvetica"
     font-weight="normal"
     id="text224" />
  <text
     stroke="none"
     fill="#000000"
     clip-path="url(#clipPath1)"
     svgx:fontName="ArialMT"
     svgx:width="278.0"
     x="316.096"
     y="136.8"
     font-size="11.049"
     font-family="Helvetica"
     font-weight="normal"
     id="text232" />
  <text
     stroke="none"
     fill="#000000"
     clip-path="url(#clipPath1)"
     svgx:fontName="ArialMT"
     svgx:width="278.0"
     x="372.522"
     y="136.8"
     font-size="11.049"
     font-family="Helvetica"
     font-weight="normal"
     id="text254" />
  <text
     stroke="none"
     fill="#000000"
     clip-path="url(#clipPath1)"
     svgx:fontName="TimesNewRomanPS-BoldMT"
     svgx:width="250.0"
     x="474.06"
     y="407.34"
     font-size="12.0"
     font-family="TimesNewRoman"
     font-weight="bold"
     id="text268" />
  <text
     stroke="none"
     fill="#000000"
     clip-path="url(#clipPath1)"
     svgx:fontName="TimesNewRomanPS-BoldMT"
     svgx:width="250.0"
     x="80.638"
     y="418.5"
     font-size="12.0"
     font-family="TimesNewRoman"
     font-weight="bold"
     id="text272" />
  <path
     stroke="black"
     clip-path="url(#clipPath1)"
     fill="#ffffff"
     stroke-width="0.48"
     d="M460.98 448.62 L114.12 448.62 L114.12 672.96 L460.98 672.96 Z"
     id="path280" />
  <path
     fill="none"
     clip-path="url(#clipPath1)"
     stroke="#ffffff"
     stroke-width="0.48"
     d="M460.98 448.62 L114.12 448.62 L114.12 672.96 L460.98 672.96 Z"
     id="path282" />
  <path
     fill="none"
     clip-path="url(#clipPath1)"
     stroke="#eaf1f3"
     stroke-width="0.96"
     d="M114.12 455.1 L460.98 455.1 M114.12 525.24 L460.98 525.24 M114.12 595.14 L460.98 595.14 M114.12 665.28 L460.98 665.28 "
     id="path284" />
  <path
     stroke="black"
     clip-path="url(#clipPath1)"
     fill="#1a466e"
     stroke-width="0.96"
     d="M253.92 607.86 C253.92 606.66 252.96 605.7 251.76 605.7 C250.56 605.7 249.6 606.66 249.6 607.86 C249.6 609.06 250.56 610.02 251.76 610.02 C252.96 610.02 253.92 609.06 253.92 607.86 Z"
     id="path286" />
  <path
     fill="none"
     clip-path="url(#clipPath1)"
     stroke="#1a466e"
     stroke-width="0.96"
     d="M253.92 607.86 C253.92 606.66 252.96 605.7 251.76 605.7 C250.56 605.7 249.6 606.66 249.6 607.86 C249.6 609.06 250.56 610.02 251.76 610.02 C252.96 610.02 253.92 609.06 253.92 607.86 Z"
     id="path288" />
  <path
     stroke="black"
     clip-path="url(#clipPath1)"
     fill="#1a466e"
     stroke-width="0.96"
     d="M256.079 586.98 C256.079 585.78 255.12 584.82 253.92 584.82 C252.72 584.82 251.76 585.78 251.76 586.98 C251.76 588.18 252.72 589.14 253.92 589.14 C255.12 589.14 256.079 588.18 256.079 586.98 Z"
     id="path290" />
  <path
     fill="none"
     clip-path="url(#clipPath1)"
     stroke="#1a466e"
     stroke-width="0.96"
     d="M256.079 586.98 C256.079 585.78 255.12 584.82 253.92 584.82 C252.72 584.82 251.76 585.78 251.76 586.98 C251.76 588.18 252.72 589.14 253.92 589.14 C255.12 589.14 256.079 588.18 256.079 586.98 Z"
     id="path292" />
  <path
     stroke="black"
     clip-path="url(#clipPath1)"
     fill="#1a466e"
     stroke-width="0.96"
     d="M258.48 610.02 C258.48 608.82 257.519 607.86 256.32 607.86 C255.12 607.86 254.16 608.82 254.16 610.02 C254.16 611.22 255.12 612.18 256.32 612.18 C257.519 612.18 258.48 611.22 258.48 610.02 Z"
     id="path294" />
  <path
     fill="none"
     clip-path="url(#clipPath1)"
     stroke="#1a466e"
     stroke-width="0.96"
     d="M258.48 610.02 C258.48 608.82 257.519 607.86 256.32 607.86 C255.12 607.86 254.16 608.82 254.16 610.02 C254.16 611.22 255.12 612.18 256.32 612.18 C257.519 612.18 258.48 611.22 258.48 610.02 Z"
     id="path296" />
  <path
     stroke="black"
     clip-path="url(#clipPath1)"
     fill="#1a466e"
     stroke-width="0.96"
     d="M259.2 666.72 C259.2 665.52 258.24 664.56 257.04 664.56 C255.84 664.56 254.88 665.52 254.88 666.72 C254.88 667.92 255.84 668.88 257.04 668.88 C258.24 668.88 259.2 667.92 259.2 666.72 Z"
     id="path298" />
  <path
     fill="none"
     clip-path="url(#clipPath1)"
     stroke="#1a466e"
     stroke-width="0.96"
     d="M259.2 666.72 C259.2 665.52 258.24 664.56 257.04 664.56 C255.84 664.56 254.88 665.52 254.88 666.72 C254.88 667.92 255.84 668.88 257.04 668.88 C258.24 668.88 259.2 667.92 259.2 666.72 Z"
     id="path300" />
  <path
     stroke="black"
     clip-path="url(#clipPath1)"
     fill="#1a466e"
     stroke-width="0.96"
     d="M289.98 590.1 C289.98 588.9 289.02 587.94 287.82 587.94 C286.62 587.94 285.66 588.9 285.66 590.1 C285.66 591.3 286.62 592.26 287.82 592.26 C289.02 592.26 289.98 591.3 289.98 590.1 Z"
     id="path302" />
  <path
     fill="none"
     clip-path="url(#clipPath1)"
     stroke="#1a466e"
     stroke-width="0.96"
     d="M289.98 590.1 C289.98 588.9 289.02 587.94 287.82 587.94 C286.62 587.94 285.66 588.9 285.66 590.1 C285.66 591.3 286.62 592.26 287.82 592.26 C289.02 592.26 289.98 591.3 289.98 590.1 Z"
     id="path304" />
  <path
     stroke="black"
     clip-path="url(#clipPath1)"
     fill="#1a466e"
     stroke-width="0.96"
     d="M294.3 640.74 C294.3 639.6 293.34 638.58 292.14 638.58 C290.94 638.58 289.98 639.6 289.98 640.74 C289.98 641.94 290.94 642.9 292.14 642.9 C293.34 642.9 294.3 641.94 294.3 640.74 Z"
     id="path306" />
  <path
     fill="none"
     clip-path="url(#clipPath1)"
     stroke="#1a466e"
     stroke-width="0.96"
     d="M294.3 640.74 C294.3 639.6 293.34 638.58 292.14 638.58 C290.94 638.58 289.98 639.6 289.98 640.74 C289.98 641.94 290.94 642.9 292.14 642.9 C293.34 642.9 294.3 641.94 294.3 640.74 Z"
     id="path308" />
  <path
     stroke="black"
     clip-path="url(#clipPath1)"
     fill="#1a466e"
     stroke-width="0.96"
     d="M294.3 589.86 C294.3 588.66 293.34 587.7 292.14 587.7 C290.94 587.7 289.98 588.66 289.98 589.86 C289.98 591.06 290.94 592.02 292.14 592.02 C293.34 592.02 294.3 591.06 294.3 589.86 Z"
     id="path310" />
  <path
     fill="none"
     clip-path="url(#clipPath1)"
     stroke="#1a466e"
     stroke-width="0.96"
     d="M294.3 589.86 C294.3 588.66 293.34 587.7 292.14 587.7 C290.94 587.7 289.98 588.66 289.98 589.86 C289.98 591.06 290.94 592.02 292.14 592.02 C293.34 592.02 294.3 591.06 294.3 589.86 Z"
     id="path312" />
  <path
     stroke="black"
     clip-path="url(#clipPath1)"
     fill="#1a466e"
     stroke-width="0.96"
     d="M302.46 605.22 C302.46 604.02 301.5 603.06 300.3 603.06 C299.1 603.06 298.14 604.02 298.14 605.22 C298.14 606.42 299.1 607.38 300.3 607.38 C301.5 607.38 302.46 606.42 302.46 605.22 Z"
     id="path314" />
  <path
     fill="none"
     clip-path="url(#clipPath1)"
     stroke="#1a466e"
     stroke-width="0.96"
     d="M302.46 605.22 C302.46 604.02 301.5 603.06 300.3 603.06 C299.1 603.06 298.14 604.02 298.14 605.22 C298.14 606.42 299.1 607.38 300.3 607.38 C301.5 607.38 302.46 606.42 302.46 605.22 Z"
     id="path316" />
  <path
     stroke="black"
     clip-path="url(#clipPath1)"
     fill="#1a466e"
     stroke-width="0.96"
     d="M302.94 644.4 C302.94 643.2 301.98 642.18 300.78 642.18 C299.58 642.18 298.62 643.2 298.62 644.34 C298.62 645.54 299.58 646.56 300.78 646.56 C301.98 646.56 302.94 645.54 302.94 644.4 Z"
     id="path318" />
  <path
     fill="none"
     clip-path="url(#clipPath1)"
     stroke="#1a466e"
     stroke-width="0.96"
     d="M302.94 644.4 C302.94 643.2 301.98 642.18 300.78 642.18 C299.58 642.18 298.62 643.2 298.62 644.34 C298.62 645.54 299.58 646.56 300.78 646.56 C301.98 646.56 302.94 645.54 302.94 644.4 Z"
     id="path320" />
  <path
     stroke="black"
     clip-path="url(#clipPath1)"
     fill="#1a466e"
     stroke-width="0.96"
     d="M309.18 602.82 C309.18 601.62 308.22 600.66 307.02 600.66 C305.82 600.66 304.86 601.62 304.86 602.82 C304.86 604.02 305.82 604.98 307.02 604.98 C308.22 604.98 309.18 604.02 309.18 602.82 Z"
     id="path322" />
  <path
     fill="none"
     clip-path="url(#clipPath1)"
     stroke="#1a466e"
     stroke-width="0.96"
     d="M309.18 602.82 C309.18 601.62 308.22 600.66 307.02 600.66 C305.82 600.66 304.86 601.62 304.86 602.82 C304.86 604.02 305.82 604.98 307.02 604.98 C308.22 604.98 309.18 604.02 309.18 602.82 Z"
     id="path324" />
  <path
     stroke="black"
     clip-path="url(#clipPath1)"
     fill="#1a466e"
     stroke-width="0.96"
     d="M309.42 601.86 C309.42 600.66 308.46 599.7 307.26 599.7 C306.06 599.7 305.1 600.66 305.1 601.86 C305.1 603.06 306.06 604.02 307.26 604.02 C308.46 604.02 309.42 603.06 309.42 601.86 Z"
     id="path326" />
  <path
     fill="none"
     clip-path="url(#clipPath1)"
     stroke="#1a466e"
     stroke-width="0.96"
     d="M309.42 601.86 C309.42 600.66 308.46 599.7 307.26 599.7 C306.06 599.7 305.1 600.66 305.1 601.86 C305.1 603.06 306.06 604.02 307.26 604.02 C308.46 604.02 309.42 603.06 309.42 601.86 Z"
     id="path328" />
  <path
     stroke="black"
     clip-path="url(#clipPath1)"
     fill="#1a466e"
     stroke-width="0.96"
     d="M312.54 548.28 C312.54 547.08 311.58 546.12 310.38 546.12 C309.18 546.12 308.22 547.08 308.22 548.28 C308.22 549.48 309.18 550.44 310.38 550.44 C311.58 550.44 312.54 549.48 312.54 548.28 Z"
     id="path330" />
  <path
     fill="none"
     clip-path="url(#clipPath1)"
     stroke="#1a466e"
     stroke-width="0.96"
     d="M312.54 548.28 C312.54 547.08 311.58 546.12 310.38 546.12 C309.18 546.12 308.22 547.08 308.22 548.28 C308.22 549.48 309.18 550.44 310.38 550.44 C311.58 550.44 312.54 549.48 312.54 548.28 Z"
     id="path332" />
  <path
     stroke="black"
     clip-path="url(#clipPath1)"
     fill="#1a466e"
     stroke-width="0.96"
     d="M314.46 585.54 C314.46 584.34 313.5 583.38 312.3 583.38 C311.1 583.38 310.14 584.34 310.14 585.54 C310.14 586.74 311.1 587.7 312.3 587.7 C313.5 587.7 314.46 586.74 314.46 585.54 Z"
     id="path334" />
  <path
     fill="none"
     clip-path="url(#clipPath1)"
     stroke="#1a466e"
     stroke-width="0.96"
     d="M314.46 585.54 C314.46 584.34 313.5 583.38 312.3 583.38 C311.1 583.38 310.14 584.34 310.14 585.54 C310.14 586.74 311.1 587.7 312.3 587.7 C313.5 587.7 314.46 586.74 314.46 585.54 Z"
     id="path336" />
  <path
     stroke="black"
     clip-path="url(#clipPath1)"
     fill="#1a466e"
     stroke-width="0.96"
     d="M318.06 637.62 C318.06 636.42 317.1 635.46 315.9 635.46 C314.7 635.46 313.74 636.42 313.74 637.62 C313.74 638.82 314.7 639.78 315.9 639.78 C317.1 639.78 318.06 638.82 318.06 637.62 Z"
     id="path338" />
  <path
     fill="none"
     clip-path="url(#clipPath1)"
     stroke="#1a466e"
     stroke-width="0.96"
     d="M318.06 637.62 C318.06 636.42 317.1 635.46 315.9 635.46 C314.7 635.46 313.74 636.42 313.74 637.62 C313.74 638.82 314.7 639.78 315.9 639.78 C317.1 639.78 318.06 638.82 318.06 637.62 Z"
     id="path340" />
  <path
     stroke="black"
     clip-path="url(#clipPath1)"
     fill="#1a466e"
     stroke-width="0.96"
     d="M325.5 588.18 C325.5 586.98 324.54 586.02 323.34 586.02 C322.14 586.02 321.18 586.98 321.18 588.18 C321.18 589.38 322.14 590.34 323.34 590.34 C324.54 590.34 325.5 589.38 325.5 588.18 Z"
     id="path342" />
  <path
     fill="none"
     clip-path="url(#clipPath1)"
     stroke="#1a466e"
     stroke-width="0.96"
     d="M325.5 588.18 C325.5 586.98 324.54 586.02 323.34 586.02 C322.14 586.02 321.18 586.98 321.18 588.18 C321.18 589.38 322.14 590.34 323.34 590.34 C324.54 590.34 325.5 589.38 325.5 588.18 Z"
     id="path344" />
  <path
     stroke="black"
     clip-path="url(#clipPath1)"
     fill="#1a466e"
     stroke-width="0.96"
     d="M330.54 615.78 C330.54 614.58 329.58 613.62 328.38 613.62 C327.24 613.62 326.22 614.58 326.22 615.78 C326.22 616.98 327.24 617.94 328.38 617.94 C329.58 617.94 330.54 616.98 330.54 615.78 Z"
     id="path346" />
  <path
     fill="none"
     clip-path="url(#clipPath1)"
     stroke="#1a466e"
     stroke-width="0.96"
     d="M330.54 615.78 C330.54 614.58 329.58 613.62 328.38 613.62 C327.24 613.62 326.22 614.58 326.22 615.78 C326.22 616.98 327.24 617.94 328.38 617.94 C329.58 617.94 330.54 616.98 330.54 615.78 Z"
     id="path348" />
  <path
     stroke="black"
     clip-path="url(#clipPath1)"
     fill="#1a466e"
     stroke-width="0.96"
     d="M336.36 629.94 C336.36 628.74 335.34 627.78 334.2 627.78 C333.0 627.78 332.04 628.74 332.04 629.94 C332.04 631.14 333.0 632.1 334.2 632.1 C335.34 632.1 336.36 631.14 336.36 629.94 Z"
     id="path350" />
  <path
     fill="none"
     clip-path="url(#clipPath1)"
     stroke="#1a466e"
     stroke-width="0.96"
     d="M336.36 629.94 C336.36 628.74 335.34 627.78 334.2 627.78 C333.0 627.78 332.04 628.74 332.04 629.94 C332.04 631.14 333.0 632.1 334.2 632.1 C335.34 632.1 336.36 631.14 336.36 629.94 Z"
     id="path352" />
  <path
     stroke="black"
     clip-path="url(#clipPath1)"
     fill="#1a466e"
     stroke-width="0.96"
     d="M341.16 657.36 C341.16 656.16 340.2 655.2 339.0 655.2 C337.8 655.2 336.84 656.16 336.84 657.36 C336.84 658.56 337.8 659.52 339.0 659.52 C340.2 659.52 341.16 658.56 341.16 657.36 Z"
     id="path354" />
  <path
     fill="none"
     clip-path="url(#clipPath1)"
     stroke="#1a466e"
     stroke-width="0.96"
     d="M341.16 657.36 C341.16 656.16 340.2 655.2 339.0 655.2 C337.8 655.2 336.84 656.16 336.84 657.36 C336.84 658.56 337.8 659.52 339.0 659.52 C340.2 659.52 341.16 658.56 341.16 657.36 Z"
     id="path356" />
  <path
     stroke="black"
     clip-path="url(#clipPath1)"
     fill="#1a466e"
     stroke-width="0.96"
     d="M349.56 651.36 C349.56 650.16 348.6 649.2 347.4 649.2 C346.2 649.2 345.24 650.16 345.24 651.36 C345.24 652.5 346.2 653.52 347.4 653.52 C348.6 653.52 349.56 652.5 349.56 651.36 Z"
     id="path358" />
  <path
     fill="none"
     clip-path="url(#clipPath1)"
     stroke="#1a466e"
     stroke-width="0.96"
     d="M349.56 651.36 C349.56 650.16 348.6 649.2 347.4 649.2 C346.2 649.2 345.24 650.16 345.24 651.36 C345.24 652.5 346.2 653.52 347.4 653.52 C348.6 653.52 349.56 652.5 349.56 651.36 Z"
     id="path360" />
  <path
     fill="none"
     clip-path="url(#clipPath1)"
     stroke="#000000"
     stroke-width="0.96"
     d="M300.06 455.1 L296.94 459.9 M295.5 462.3 L292.38 467.1 M290.94 469.74 L287.82 474.54 M286.38 476.94 L283.26 481.98 M281.82 484.38 L278.7 489.18 M277.26 491.58 L274.14 496.62 M272.7 499.02 L269.58 503.88 M268.14 506.28 L265.02 511.32 M263.52 513.72 L260.399 518.52 M258.959 520.919 L255.84 525.96 M254.4 528.36 L251.28 533.16 M249.84 535.56 L246.72 540.6 M245.28 543.0 L242.16 547.8 M240.72 550.44 L237.6 555.24 M236.16 557.64 L233.04 562.44 M231.6 565.08 L228.48 569.88 M226.8 572.28 L223.92 577.38 M222.24 579.78 L219.36 584.58 M217.68 586.98 L214.8 592.02 M213.12 594.42 L210.24 599.22 M208.56 601.62 L205.68 606.66 M204.0 609.06 L201.12 613.86 M199.44 616.26 L196.5 621.3 M194.82 623.7 L191.94 628.5 M190.26 630.9 L187.38 635.94 M185.7 638.34 L182.82 643.14 M181.14 645.78 L178.26 650.64 M176.58 653.04 L173.7 657.84 M172.02 660.48 L169.14 665.28 M300.06 455.1 L302.94 459.9 M304.62 462.3 L307.5 467.1 M309.18 469.74 L312.06 474.54 M313.74 476.94 L316.62 481.98 M318.3 484.38 L321.18 489.18 M322.86 491.58 L325.74 496.62 M327.42 499.02 L330.3 503.88 M332.04 506.28 L334.92 511.32 M336.6 513.72 L339.72 518.52 M341.16 520.919 L344.04 525.96 M345.72 528.36 L348.84 533.16 M350.28 535.56 L353.4 540.6 M354.84 543.0 L357.96 547.8 M359.4 550.44 L362.52 555.24 M363.96 557.64 L367.08 562.44 M368.52 565.08 L371.64 569.88 M373.08 572.28 L376.2 577.38 M377.64 579.78 L380.76 584.58 M382.2 586.98 L385.32 592.02 M386.76 594.42 L389.88 599.22 M391.32 601.62 L394.44 606.66 M395.88 609.06 L399.06 613.86 M400.5 616.26 L403.62 621.3 M405.06 623.7 L408.18 628.5 M409.62 630.9 L412.74 635.94 M414.18 638.34 L417.3 643.14 M418.74 645.78 L421.86 650.64 M423.3 653.04 L426.42 657.84 M427.86 660.48 L430.98 665.28 M300.06 455.1 L300.06 666.72 "
     id="path362" />
  <path
     fill="none"
     clip-path="url(#clipPath1)"
     stroke="#000000"
     stroke-width="0.48"
     d="M114.12 672.96 L114.12 448.62 M114.12 455.1 L110.04 455.1 "
     id="path364" />
  <text
     stroke="none"
     fill="#000000"
     clip-path="url(#clipPath1)"
     svgx:fontName="ArialMT"
     svgx:width="556.0"
     transform="matrix(0.0,-1.0,1.0,0.0,-352.01971,563.69971)"
     x="105.84"
     y="457.86"
     font-size="10.089"
     font-family="Helvetica"
     font-weight="normal"
     id="text366">0</text>
  <path
     fill="none"
     clip-path="url(#clipPath1)"
     stroke="#000000"
     stroke-width="0.48"
     d="M114.12 525.24 L110.04 525.24 "
     id="path368" />
  <text
     stroke="none"
     fill="#000000"
     clip-path="url(#clipPath1)"
     svgx:fontName="ArialMT"
     svgx:width="556.0"
     transform="matrix(0.0,-1.0,1.0,0.0,-422.15964,633.83963)"
     x="105.84"
     y="528.0"
     font-size="10.089"
     font-family="Helvetica"
     font-weight="normal"
     id="text370">1</text>
  <path
     fill="none"
     clip-path="url(#clipPath1)"
     stroke="#000000"
     stroke-width="0.48"
     d="M114.12 595.14 L110.04 595.14 "
     id="path372" />
  <text
     stroke="none"
     fill="#000000"
     clip-path="url(#clipPath1)"
     svgx:fontName="ArialMT"
     svgx:width="556.0"
     transform="matrix(0.0,-1.0,1.0,0.0,-492.05972,703.73972)"
     x="105.84"
     y="597.9"
     font-size="10.089"
     font-family="Helvetica"
     font-weight="normal"
     id="text374">2</text>
  <path
     fill="none"
     clip-path="url(#clipPath1)"
     stroke="#000000"
     stroke-width="0.48"
     d="M114.12 665.28 L110.04 665.28 "
     id="path376" />
  <text
     stroke="none"
     fill="#000000"
     clip-path="url(#clipPath1)"
     svgx:fontName="ArialMT"
     svgx:width="556.0"
     transform="matrix(0.0,-1.0,1.0,0.0,-562.19968,773.87967)"
     x="105.84"
     y="668.04"
     font-size="10.089"
     font-family="Helvetica"
     font-weight="normal"
     id="text378">3</text>
  <text
     stroke="none"
     fill="#000000"
     clip-path="url(#clipPath1)"
     svgx:fontName="ArialMT"
     svgx:width="500.0"
     transform="matrix(0.0,-1.0,1.0,0.0,-500.40013,689.88454)"
     x="94.742"
     y="595.142"
     font-size="10.089"
     font-family="Helvetica"
     font-weight="normal"
     id="text380">s</text>
  <text
     stroke="none"
     fill="#000000"
     clip-path="url(#clipPath1)"
     svgx:fontName="ArialMT"
     svgx:width="278.0"
     transform="matrix(0.0,-1.0,1.0,0.0,-495.35606,684.84047)"
     x="94.742"
     y="590.098"
     font-size="10.089"
     font-family="Helvetica"
     font-weight="normal"
     id="text382">.</text>
  <text
     stroke="none"
     fill="#000000"
     clip-path="url(#clipPath1)"
     svgx:fontName="ArialMT"
     svgx:width="556.0"
     transform="matrix(0.0,-1.0,1.0,0.0,-492.47081,681.95522)"
     x="94.742"
     y="587.213"
     font-size="10.089"
     font-family="Helvetica"
     font-weight="normal"
     id="text384">e</text>
  <text
     stroke="none"
     fill="#000000"
     clip-path="url(#clipPath1)"
     svgx:fontName="ArialMT"
     svgx:width="278.0"
     transform="matrix(0.0,-1.0,1.0,0.0,-486.95262,676.43703)"
     x="94.742"
     y="581.695"
     font-size="10.089"
     font-family="Helvetica"
     font-weight="normal"
     id="text386">.</text>
  <text
     stroke="none"
     fill="#000000"
     clip-path="url(#clipPath1)"
     svgx:fontName="ArialMT"
     svgx:width="278.0"
     transform="matrix(0.0,-1.0,1.0,0.0,-484.06737,673.55177)"
     x="94.742"
     y="578.81"
     font-size="10.089"
     font-family="Helvetica"
     font-weight="normal"
     id="text388" />
  <text
     stroke="none"
     fill="#000000"
     clip-path="url(#clipPath1)"
     svgx:fontName="ArialMT"
     svgx:width="556.0"
     transform="matrix(0.0,-1.0,1.0,0.0,-481.18614,670.67055)"
     x="94.742"
     y="575.928"
     font-size="10.089"
     font-family="Helvetica"
     font-weight="normal"
     id="text390">o</text>
  <text
     stroke="none"
     fill="#000000"
     clip-path="url(#clipPath1)"
     svgx:fontName="ArialMT"
     svgx:width="278.0"
     transform="matrix(0.0,-1.0,1.0,0.0,-475.66795,665.15236)"
     x="94.742"
     y="570.41"
     font-size="10.089"
     font-family="Helvetica"
     font-weight="normal"
     id="text392">f</text>
  <text
     stroke="none"
     fill="#000000"
     clip-path="url(#clipPath1)"
     svgx:fontName="ArialMT"
     svgx:width="278.0"
     transform="matrix(0.0,-1.0,1.0,0.0,-472.7827,662.26711)"
     x="94.742"
     y="567.525"
     font-size="10.089"
     font-family="Helvetica"
     font-weight="normal"
     id="text394" />
  <text
     stroke="none"
     fill="#000000"
     clip-path="url(#clipPath1)"
     svgx:fontName="ArialMT"
     svgx:width="833.0"
     transform="matrix(0.0,-1.0,1.0,0.0,-469.90147,659.38588)"
     x="94.742"
     y="564.644"
     font-size="10.089"
     font-family="Helvetica"
     font-weight="normal"
     id="text396">M</text>
  <text
     stroke="none"
     fill="#000000"
     clip-path="url(#clipPath1)"
     svgx:fontName="ArialMT"
     svgx:width="722.0"
     transform="matrix(0.0,-1.0,1.0,0.0,-461.49803,650.98244)"
     x="94.742"
     y="556.24"
     font-size="10.089"
     font-family="Helvetica"
     font-weight="normal"
     id="text398">D</text>
  <text
     stroke="none"
     fill="#000000"
     clip-path="url(#clipPath1)"
     svgx:fontName="ArialMT"
     svgx:width="556.0"
     transform="matrix(0.0,-1.0,1.0,0.0,-454.30516,643.78957)"
     x="94.742"
     y="549.047"
     font-size="10.089"
     font-family="Helvetica"
     font-weight="normal"
     id="text400">_</text>
  <text
     stroke="none"
     fill="#000000"
     clip-path="url(#clipPath1)"
     svgx:fontName="ArialMT"
     svgx:width="278.0"
     transform="matrix(0.0,-1.0,1.0,0.0,-448.78685,638.27126)"
     x="94.742"
     y="543.529"
     font-size="10.089"
     font-family="Helvetica"
     font-weight="normal"
     id="text402">I</text>
  <text
     stroke="none"
     fill="#000000"
     clip-path="url(#clipPath1)"
     svgx:fontName="ArialMT"
     svgx:width="667.0"
     transform="matrix(0.0,-1.0,1.0,0.0,-445.84117,635.32558)"
     x="94.742"
     y="540.583"
     font-size="10.089"
     font-family="Helvetica"
     font-weight="normal"
     id="text404">V</text>
  <text
     stroke="none"
     fill="#000000"
     clip-path="url(#clipPath1)"
     svgx:fontName="ArialMT"
     svgx:width="722.0"
     transform="matrix(0.0,-1.0,1.0,0.0,-439.12242,628.60683)"
     x="94.742"
     y="533.865"
     font-size="10.089"
     font-family="Helvetica"
     font-weight="normal"
     id="text406">C</text>
  <path
     fill="none"
     clip-path="url(#clipPath1)"
     stroke="#000000"
     stroke-width="0.48"
     d="M114.12 672.96 L460.98 672.96 M120.36 672.96 L120.36 677.04 "
     id="path408" />
  <text
     stroke="none"
     fill="#000000"
     clip-path="url(#clipPath1)"
     svgx:fontName="ArialMT"
     svgx:width="333.0"
     x="115.98"
     y="688.02"
     font-size="10.089"
     font-family="Helvetica"
     font-weight="normal"
     id="text410">-</text>
  <text
     stroke="none"
     fill="#000000"
     clip-path="url(#clipPath1)"
     svgx:fontName="ArialMT"
     svgx:width="556.0"
     x="119.34"
     y="688.02"
     font-size="10.089"
     font-family="Helvetica"
     font-weight="normal"
     id="text412">5</text>
  <path
     fill="none"
     clip-path="url(#clipPath1)"
     stroke="#000000"
     stroke-width="0.48"
     d="M231.84 672.96 L231.84 677.04 "
     id="path414" />
  <text
     stroke="none"
     fill="#000000"
     clip-path="url(#clipPath1)"
     svgx:fontName="ArialMT"
     svgx:width="556.0"
     x="229.14"
     y="688.02"
     font-size="10.089"
     font-family="Helvetica"
     font-weight="normal"
     id="text416">0</text>
  <path
     fill="none"
     clip-path="url(#clipPath1)"
     stroke="#000000"
     stroke-width="0.48"
     d="M343.32 672.96 L343.32 677.04 "
     id="path418" />
  <text
     stroke="none"
     fill="#000000"
     clip-path="url(#clipPath1)"
     svgx:fontName="ArialMT"
     svgx:width="556.0"
     x="340.56"
     y="688.02"
     font-size="10.089"
     font-family="Helvetica"
     font-weight="normal"
     id="text420">5</text>
  <path
     fill="none"
     clip-path="url(#clipPath1)"
     stroke="#000000"
     stroke-width="0.48"
     d="M454.74 672.96 L454.74 677.04 "
     id="path422" />
  <text
     stroke="none"
     fill="#000000"
     clip-path="url(#clipPath1)"
     svgx:fontName="ArialMT"
     svgx:width="556.0"
     x="449.16"
     y="688.02"
     font-size="10.089"
     font-family="Helvetica"
     font-weight="normal"
     id="text424">1</text>
  <text
     stroke="none"
     fill="#000000"
     clip-path="url(#clipPath1)"
     svgx:fontName="ArialMT"
     svgx:width="556.0"
     x="454.679"
     y="688.02"
     font-size="10.089"
     font-family="Helvetica"
     font-weight="normal"
     id="text426">0</text>
  <text
     stroke="none"
     fill="#000000"
     clip-path="url(#clipPath1)"
     svgx:fontName="ArialMT"
     svgx:width="833.0"
     x="268.498"
     y="697.916"
     font-size="10.089"
     font-family="Helvetica"
     font-weight="normal"
     id="text428">M</text>
  <text
     stroke="none"
     fill="#000000"
     clip-path="url(#clipPath1)"
     svgx:fontName="ArialMT"
     svgx:width="722.0"
     x="276.89"
     y="697.916"
     font-size="10.089"
     font-family="Helvetica"
     font-weight="normal"
     id="text430">D</text>
  <text
     stroke="none"
     fill="#000000"
     clip-path="url(#clipPath1)"
     svgx:fontName="ArialMT"
     svgx:width="556.0"
     x="284.162"
     y="697.916"
     font-size="10.089"
     font-family="Helvetica"
     font-weight="normal"
     id="text432">_</text>
  <text
     stroke="none"
     fill="#000000"
     clip-path="url(#clipPath1)"
     svgx:fontName="ArialMT"
     svgx:width="278.0"
     x="289.921"
     y="697.916"
     font-size="10.089"
     font-family="Helvetica"
     font-weight="normal"
     id="text434">I</text>
  <text
     stroke="none"
     fill="#000000"
     clip-path="url(#clipPath1)"
     svgx:fontName="ArialMT"
     svgx:width="667.0"
     x="292.562"
     y="697.916"
     font-size="10.089"
     font-family="Helvetica"
     font-weight="normal"
     id="text436">V</text>
  <text
     stroke="none"
     fill="#000000"
     clip-path="url(#clipPath1)"
     svgx:fontName="ArialMT"
     svgx:width="722.0"
     x="299.279"
     y="697.916"
     font-size="10.089"
     font-family="Helvetica"
     font-weight="normal"
     id="text438">C</text>
  <text
     stroke="none"
     fill="#000000"
     clip-path="url(#clipPath1)"
     svgx:fontName="ArialMT"
     svgx:width="611.0"
     x="174.42"
     y="444.54"
     font-size="11.049"
     font-family="Helvetica"
     font-weight="normal"
     id="text440">F</text>
  <text
     stroke="none"
     fill="#000000"
     clip-path="url(#clipPath1)"
     svgx:fontName="ArialMT"
     svgx:width="556.0"
     x="181.14"
     y="444.54"
     font-size="11.049"
     font-family="Helvetica"
     font-weight="normal"
     id="text442">u</text>
  <text
     stroke="none"
     fill="#000000"
     clip-path="url(#clipPath1)"
     svgx:fontName="ArialMT"
     svgx:width="556.0"
     x="187.441"
     y="444.54"
     font-size="11.049"
     font-family="Helvetica"
     font-weight="normal"
     id="text444">n</text>
  <text
     stroke="none"
     fill="#000000"
     clip-path="url(#clipPath1)"
     svgx:fontName="ArialMT"
     svgx:width="556.0"
     x="193.443"
     y="444.54"
     font-size="11.049"
     font-family="Helvetica"
     font-weight="normal"
     id="text446">n</text>
  <text
     stroke="none"
     fill="#000000"
     clip-path="url(#clipPath1)"
     svgx:fontName="ArialMT"
     svgx:width="556.0"
     x="199.678"
     y="444.54"
     font-size="11.049"
     font-family="Helvetica"
     font-weight="normal"
     id="text448">e</text>
  <text
     stroke="none"
     fill="#000000"
     clip-path="url(#clipPath1)"
     svgx:fontName="ArialMT"
     svgx:width="222.0"
     x="205.68"
     y="444.54"
     font-size="11.049"
     font-family="Helvetica"
     font-weight="normal"
     id="text450">l</text>
  <text
     stroke="none"
     fill="#000000"
     clip-path="url(#clipPath1)"
     svgx:fontName="ArialMT"
     svgx:width="278.0"
     x="208.08"
     y="444.54"
     font-size="11.049"
     font-family="Helvetica"
     font-weight="normal"
     id="text452" />
  <text
     stroke="none"
     fill="#000000"
     clip-path="url(#clipPath1)"
     svgx:fontName="ArialMT"
     svgx:width="556.0"
     x="211.201"
     y="444.54"
     font-size="11.049"
     font-family="Helvetica"
     font-weight="normal"
     id="text454">p</text>
  <text
     stroke="none"
     fill="#000000"
     clip-path="url(#clipPath1)"
     svgx:fontName="ArialMT"
     svgx:width="222.0"
     x="217.425"
     y="444.54"
     font-size="11.049"
     font-family="Helvetica"
     font-weight="normal"
     id="text456">l</text>
  <text
     stroke="none"
     fill="#000000"
     clip-path="url(#clipPath1)"
     svgx:fontName="ArialMT"
     svgx:width="556.0"
     x="219.825"
     y="444.54"
     font-size="11.049"
     font-family="Helvetica"
     font-weight="normal"
     id="text458">o</text>
  <text
     stroke="none"
     fill="#000000"
     clip-path="url(#clipPath1)"
     svgx:fontName="ArialMT"
     svgx:width="278.0"
     x="225.827"
     y="444.54"
     font-size="11.049"
     font-family="Helvetica"
     font-weight="normal"
     id="text460">t</text>
  <text
     stroke="none"
     fill="#000000"
     clip-path="url(#clipPath1)"
     svgx:fontName="ArialMT"
     svgx:width="278.0"
     x="228.945"
     y="444.54"
     font-size="11.049"
     font-family="Helvetica"
     font-weight="normal"
     id="text462" />
  <text
     stroke="none"
     fill="#000000"
     clip-path="url(#clipPath1)"
     svgx:fontName="ArialMT"
     svgx:width="722.0"
     x="232.067"
     y="444.54"
     font-size="11.049"
     font-family="Helvetica"
     font-weight="normal"
     id="text464">w</text>
  <text
     stroke="none"
     fill="#000000"
     clip-path="url(#clipPath1)"
     svgx:fontName="ArialMT"
     svgx:width="222.0"
     x="239.981"
     y="444.54"
     font-size="11.049"
     font-family="Helvetica"
     font-weight="normal"
     id="text466">i</text>
  <text
     stroke="none"
     fill="#000000"
     clip-path="url(#clipPath1)"
     svgx:fontName="ArialMT"
     svgx:width="278.0"
     x="242.381"
     y="444.54"
     font-size="11.049"
     font-family="Helvetica"
     font-weight="normal"
     id="text468">t</text>
  <text
     stroke="none"
     fill="#000000"
     clip-path="url(#clipPath1)"
     svgx:fontName="ArialMT"
     svgx:width="556.0"
     x="245.532"
     y="444.54"
     font-size="11.049"
     font-family="Helvetica"
     font-weight="normal"
     id="text470">h</text>
  <text
     stroke="none"
     fill="#000000"
     clip-path="url(#clipPath1)"
     svgx:fontName="ArialMT"
     svgx:width="278.0"
     x="251.833"
     y="444.54"
     font-size="11.049"
     font-family="Helvetica"
     font-weight="normal"
     id="text472" />
  <text
     stroke="none"
     fill="#000000"
     clip-path="url(#clipPath1)"
     svgx:fontName="ArialMT"
     svgx:width="556.0"
     x="254.711"
     y="444.54"
     font-size="11.049"
     font-family="Helvetica"
     font-weight="normal"
     id="text474">p</text>
  <text
     stroke="none"
     fill="#000000"
     clip-path="url(#clipPath1)"
     svgx:fontName="ArialMT"
     svgx:width="500.0"
     x="260.934"
     y="444.54"
     font-size="11.049"
     font-family="Helvetica"
     font-weight="normal"
     id="text476">s</text>
  <text
     stroke="none"
     fill="#000000"
     clip-path="url(#clipPath1)"
     svgx:fontName="ArialMT"
     svgx:width="556.0"
     x="266.45"
     y="444.54"
     font-size="11.049"
     font-family="Helvetica"
     font-weight="normal"
     id="text478">e</text>
  <text
     stroke="none"
     fill="#000000"
     clip-path="url(#clipPath1)"
     svgx:fontName="ArialMT"
     svgx:width="556.0"
     x="272.453"
     y="444.54"
     font-size="11.049"
     font-family="Helvetica"
     font-weight="normal"
     id="text480">u</text>
  <text
     stroke="none"
     fill="#000000"
     clip-path="url(#clipPath1)"
     svgx:fontName="ArialMT"
     svgx:width="556.0"
     x="278.676"
     y="444.54"
     font-size="11.049"
     font-family="Helvetica"
     font-weight="normal"
     id="text482">d</text>
  <text
     stroke="none"
     fill="#000000"
     clip-path="url(#clipPath1)"
     svgx:fontName="ArialMT"
     svgx:width="556.0"
     x="284.899"
     y="444.54"
     font-size="11.049"
     font-family="Helvetica"
     font-weight="normal"
     id="text484">o</text>
  <text
     stroke="none"
     fill="#000000"
     clip-path="url(#clipPath1)"
     svgx:fontName="ArialMT"
     svgx:width="278.0"
     x="290.901"
     y="444.54"
     font-size="11.049"
     font-family="Helvetica"
     font-weight="normal"
     id="text486" />
  <text
     stroke="none"
     fill="#000000"
     clip-path="url(#clipPath1)"
     svgx:fontName="ArialMT"
     svgx:width="556.0"
     x="294.023"
     y="444.54"
     font-size="11.049"
     font-family="Helvetica"
     font-weight="normal"
     id="text488">9</text>
  <text
     stroke="none"
     fill="#000000"
     clip-path="url(#clipPath1)"
     svgx:fontName="ArialMT"
     svgx:width="556.0"
     x="300.025"
     y="444.54"
     font-size="11.049"
     font-family="Helvetica"
     font-weight="normal"
     id="text490">5</text>
  <text
     stroke="none"
     fill="#000000"
     clip-path="url(#clipPath1)"
     svgx:fontName="ArialMT"
     svgx:width="889.0"
     x="306.259"
     y="444.54"
     font-size="11.049"
     font-family="Helvetica"
     font-weight="normal"
     id="text492">%</text>
  <text
     stroke="none"
     fill="#000000"
     clip-path="url(#clipPath1)"
     svgx:fontName="ArialMT"
     svgx:width="278.0"
     x="316.096"
     y="444.54"
     font-size="11.049"
     font-family="Helvetica"
     font-weight="normal"
     id="text494" />
  <text
     stroke="none"
     fill="#000000"
     clip-path="url(#clipPath1)"
     svgx:fontName="ArialMT"
     svgx:width="500.0"
     x="319.273"
     y="444.54"
     font-size="11.049"
     font-family="Helvetica"
     font-weight="normal"
     id="text496">c</text>
  <text
     stroke="none"
     fill="#000000"
     clip-path="url(#clipPath1)"
     svgx:fontName="ArialMT"
     svgx:width="556.0"
     x="324.789"
     y="444.54"
     font-size="11.049"
     font-family="Helvetica"
     font-weight="normal"
     id="text498">o</text>
  <text
     stroke="none"
     fill="#000000"
     clip-path="url(#clipPath1)"
     svgx:fontName="ArialMT"
     svgx:width="556.0"
     x="330.791"
     y="444.54"
     font-size="11.049"
     font-family="Helvetica"
     font-weight="normal"
     id="text500">n</text>
  <text
     stroke="none"
     fill="#000000"
     clip-path="url(#clipPath1)"
     svgx:fontName="ArialMT"
     svgx:width="278.0"
     x="337.014"
     y="444.54"
     font-size="11.049"
     font-family="Helvetica"
     font-weight="normal"
     id="text502">f</text>
  <text
     stroke="none"
     fill="#000000"
     clip-path="url(#clipPath1)"
     svgx:fontName="ArialMT"
     svgx:width="222.0"
     x="339.901"
     y="444.54"
     font-size="11.049"
     font-family="Helvetica"
     font-weight="normal"
     id="text504">i</text>
  <text
     stroke="none"
     fill="#000000"
     clip-path="url(#clipPath1)"
     svgx:fontName="ArialMT"
     svgx:width="556.0"
     x="342.544"
     y="444.54"
     font-size="11.049"
     font-family="Helvetica"
     font-weight="normal"
     id="text506">d</text>
  <text
     stroke="none"
     fill="#000000"
     clip-path="url(#clipPath1)"
     svgx:fontName="ArialMT"
     svgx:width="556.0"
     x="348.546"
     y="444.54"
     font-size="11.049"
     font-family="Helvetica"
     font-weight="normal"
     id="text508">e</text>
  <text
     stroke="none"
     fill="#000000"
     clip-path="url(#clipPath1)"
     svgx:fontName="ArialMT"
     svgx:width="556.0"
     x="354.769"
     y="444.54"
     font-size="11.049"
     font-family="Helvetica"
     font-weight="normal"
     id="text510">n</text>
  <text
     stroke="none"
     fill="#000000"
     clip-path="url(#clipPath1)"
     svgx:fontName="ArialMT"
     svgx:width="500.0"
     x="360.771"
     y="444.54"
     font-size="11.049"
     font-family="Helvetica"
     font-weight="normal"
     id="text512">c</text>
  <text
     stroke="none"
     fill="#000000"
     clip-path="url(#clipPath1)"
     svgx:fontName="ArialMT"
     svgx:width="556.0"
     x="366.287"
     y="444.54"
     font-size="11.049"
     font-family="Helvetica"
     font-weight="normal"
     id="text514">e</text>
  <text
     stroke="none"
     fill="#000000"
     clip-path="url(#clipPath1)"
     svgx:fontName="ArialMT"
     svgx:width="278.0"
     x="372.522"
     y="444.54"
     font-size="11.049"
     font-family="Helvetica"
     font-weight="normal"
     id="text516" />
  <text
     stroke="none"
     fill="#000000"
     clip-path="url(#clipPath1)"
     svgx:fontName="ArialMT"
     svgx:width="222.0"
     x="375.643"
     y="444.54"
     font-size="11.049"
     font-family="Helvetica"
     font-weight="normal"
     id="text518">l</text>
  <text
     stroke="none"
     fill="#000000"
     clip-path="url(#clipPath1)"
     svgx:fontName="ArialMT"
     svgx:width="222.0"
     x="378.043"
     y="444.54"
     font-size="11.049"
     font-family="Helvetica"
     font-weight="normal"
     id="text520">i</text>
  <text
     stroke="none"
     fill="#000000"
     clip-path="url(#clipPath1)"
     svgx:fontName="ArialMT"
     svgx:width="833.0"
     x="380.443"
     y="444.54"
     font-size="11.049"
     font-family="Helvetica"
     font-weight="normal"
     id="text522">m</text>
  <text
     stroke="none"
     fill="#000000"
     clip-path="url(#clipPath1)"
     svgx:fontName="ArialMT"
     svgx:width="222.0"
     x="389.628"
     y="444.54"
     font-size="11.049"
     font-family="Helvetica"
     font-weight="normal"
     id="text524">i</text>
  <text
     stroke="none"
     fill="#000000"
     clip-path="url(#clipPath1)"
     svgx:fontName="ArialMT"
     svgx:width="278.0"
     x="392.26"
     y="444.54"
     font-size="11.049"
     font-family="Helvetica"
     font-weight="normal"
     id="text526">t</text>
  <text
     stroke="none"
     fill="#000000"
     clip-path="url(#clipPath1)"
     svgx:fontName="ArialMT"
     svgx:width="500.0"
     x="395.146"
     y="444.54"
     font-size="11.049"
     font-family="Helvetica"
     font-weight="normal"
     id="text528">s</text>
  <text
     stroke="none"
     fill="#000000"
     clip-path="url(#clipPath1)"
     svgx:fontName="TimesNewRomanPS-BoldMT"
     svgx:width="250.0"
     x="474.06"
     y="715.08"
     font-size="12.0"
     font-family="TimesNewRoman"
     font-weight="bold"
     id="text530" />
  <text
     stroke="none"
     fill="#000000"
     clip-path="url(#clipPath1)"
     svgx:fontName="TimesNewRomanPS-BoldMT"
     svgx:width="250.0"
     x="72.0"
     y="726.24"
     font-size="12.0"
     font-family="TimesNewRoman"
     font-weight="bold"
     id="text532" />
  <text
     stroke="none"
     fill="#000000"
     clip-path="url(#clipPath1)"
     svgx:fontName="TimesNewRomanPS-BoldMT"
     svgx:width="250.0"
     x="72.0"
     y="740.04"
     font-size="12.0"
     font-family="TimesNewRoman"
     font-weight="bold"
     id="text534" />
  <text
     stroke="none"
     fill="#000000"
     clip-path="url(#clipPath1)"
     svgx:fontName="TimesNewRomanPS-BoldMT"
     svgx:width="250.0"
     x="72.0"
     y="753.84"
     font-size="12.0"
     font-family="TimesNewRoman"
     font-weight="bold"
     id="text536" />
</svg>
