<?xml version="1.0" encoding="UTF-8" standalone="no"?>
<svg
   xmlns:svgx="http://www.xml-cml.org/schema/svgx"
   xmlns:dc="http://purl.org/dc/elements/1.1/"
   xmlns:cc="http://creativecommons.org/ns#"
   xmlns:rdf="http://www.w3.org/1999/02/22-rdf-syntax-ns#"
   xmlns:svg="http://www.w3.org/2000/svg"
   xmlns="http://www.w3.org/2000/svg"
   xmlns:sodipodi="http://sodipodi.sourceforge.net/DTD/sodipodi-0.dtd"
   xmlns:inkscape="http://www.inkscape.org/namespaces/inkscape"
   width="600.0"
   height="800.0"
   stroke="none"
   stroke-width="0.0"
   id="svg2"
   version="1.1"
   inkscape:version="0.91 r13725"
   sodipodi:docname="fig2a.svg">
  <metadata
     id="metadata540">
    <rdf:RDF>
      <cc:Work
         rdf:about="">
        <dc:format>image/svg+xml</dc:format>
        <dc:type
           rdf:resource="http://purl.org/dc/dcmitype/StillImage" />
        <dc:title />
      </cc:Work>
    </rdf:RDF>
  </metadata>
  <sodipodi:namedview
     pagecolor="#ffffff"
     bordercolor="#666666"
     borderopacity="1"
     objecttolerance="10"
     gridtolerance="10"
     guidetolerance="10"
     inkscape:pageopacity="0"
     inkscape:pageshadow="2"
     inkscape:window-width="994"
     inkscape:window-height="779"
     id="namedview538"
     showgrid="false"
     inkscape:zoom="1.7136117"
     inkscape:cx="253.31498"
     inkscape:cy="563.39758"
     inkscape:window-x="0"
     inkscape:window-y="0"
     inkscape:window-maximized="0"
     inkscape:current-layer="svg2" />
  <defs
     id="defs1">
    <clipPath
       id="clipPath1">
      <path
         stroke="black"
         stroke-width="0.5"
         fill="none"
         d="M0.0 0.0 L595.0 0.0 L595.0 842.0 L0.0 842.0 L0.0 0.0 Z"
         id="path6" />
    </clipPath>
  </defs>
  <text
     stroke="none"
     fill="#000000"
     clip-path="url(#clipPath1)"
     svgx:fontName="TimesNewRomanPS-BoldMT"
     svgx:width="250.0"
     x="72.0"
     y="83.16"
     font-size="12.0"
     font-family="TimesNewRoman"
     font-weight="bold"
     id="text8" />
  <text
     stroke="none"
     fill="#000000"
     clip-path="url(#clipPath1)"
     svgx:fontName="TimesNewRomanPS-BoldMT"
     svgx:width="250.0"
     x="72.0"
     y="96.96"
     font-size="12.0"
     font-family="TimesNewRoman"
     font-weight="bold"
     id="text10" />
  <text
     stroke="none"
     fill="#000000"
     clip-path="url(#clipPath1)"
     svgx:fontName="TimesNewRomanPS-BoldMT"
     svgx:width="250.0"
     x="80.638"
     y="110.76"
     font-size="12.0"
     font-family="TimesNewRoman"
     font-weight="bold"
     id="text14" />
  <path
     stroke="black"
     clip-path="url(#clipPath1)"
     fill="#ffffff"
     stroke-width="0.48"
     d="M460.98 140.88 L114.12 140.88 L114.12 365.22 L460.98 365.22 Z"
     id="path22" />
  <path
     fill="none"
     clip-path="url(#clipPath1)"
     stroke="#ffffff"
     stroke-width="0.48"
     d="M460.98 140.88 L114.12 140.88 L114.12 365.22 L460.98 365.22 Z"
     id="path24" />
  <path
     fill="none"
     clip-path="url(#clipPath1)"
     stroke="#eaf1f3"
     stroke-width="0.96"
     d="M114.12 147.36 L460.98 147.36 M114.12 200.22 L460.98 200.22 M114.12 253.02 L460.98 253.02 M114.12 306.12 L460.98 306.12 "
     id="path26" />
  <path
     stroke="black"
     clip-path="url(#clipPath1)"
     fill="#1a466e"
     stroke-width="0.96"
     d="M236.16 295.8 C236.16 294.6 235.2 293.64 234.0 293.64 C232.8 293.64 231.84 294.6 231.84 295.8 C231.84 297.0 232.8 297.96 234.0 297.96 C235.2 297.96 236.16 297.0 236.16 295.8 Z"
     id="path28" />
  <path
     fill="none"
     clip-path="url(#clipPath1)"
     stroke="#1a466e"
     stroke-width="0.96"
     d="M236.16 295.8 C236.16 294.6 235.2 293.64 234.0 293.64 C232.8 293.64 231.84 294.6 231.84 295.8 C231.84 297.0 232.8 297.96 234.0 297.96 C235.2 297.96 236.16 297.0 236.16 295.8 Z"
     id="path30" />
  <path
     stroke="black"
     clip-path="url(#clipPath1)"
     fill="#1a466e"
     stroke-width="0.96"
     d="M249.36 186.0 C249.36 184.8 248.4 183.84 247.2 183.84 C246.0 183.84 245.04 184.8 245.04 186.0 C245.04 187.2 246.0 188.16 247.2 188.16 C248.4 188.16 249.36 187.2 249.36 186.0 Z"
     id="path32" />
  <path
     fill="none"
     clip-path="url(#clipPath1)"
     stroke="#1a466e"
     stroke-width="0.96"
     d="M249.36 186.0 C249.36 184.8 248.4 183.84 247.2 183.84 C246.0 183.84 245.04 184.8 245.04 186.0 C245.04 187.2 246.0 188.16 247.2 188.16 C248.4 188.16 249.36 187.2 249.36 186.0 Z"
     id="path34" />
  <path
     stroke="black"
     clip-path="url(#clipPath1)"
     fill="#1a466e"
     stroke-width="0.96"
     d="M257.279 273.24 C257.279 272.04 256.32 271.08 255.12 271.08 C253.92 271.08 252.96 272.04 252.96 273.24 C252.96 274.38 253.92 275.4 255.12 275.4 C256.32 275.4 257.279 274.38 257.279 273.24 Z"
     id="path36" />
  <path
     fill="none"
     clip-path="url(#clipPath1)"
     stroke="#1a466e"
     stroke-width="0.96"
     d="M257.279 273.24 C257.279 272.04 256.32 271.08 255.12 271.08 C253.92 271.08 252.96 272.04 252.96 273.24 C252.96 274.38 253.92 275.4 255.12 275.4 C256.32 275.4 257.279 274.38 257.279 273.24 Z"
     id="path38" />
  <path
     stroke="black"
     clip-path="url(#clipPath1)"
     fill="#1a466e"
     stroke-width="0.96"
     d="M267.9 308.52 C267.9 307.32 266.88 306.36 265.68 306.36 C264.54 306.36 263.52 307.32 263.52 308.52 C263.52 309.72 264.54 310.68 265.74 310.68 C266.88 310.68 267.9 309.72 267.9 308.52 Z"
     id="path40" />
  <path
     fill="none"
     clip-path="url(#clipPath1)"
     stroke="#1a466e"
     stroke-width="0.96"
     d="M267.9 308.52 C267.9 307.32 266.88 306.36 265.68 306.36 C264.54 306.36 263.52 307.32 263.52 308.52 C263.52 309.72 264.54 310.68 265.74 310.68 C266.88 310.68 267.9 309.72 267.9 308.52 Z"
     id="path42" />
  <path
     stroke="black"
     clip-path="url(#clipPath1)"
     fill="#1a466e"
     stroke-width="0.96"
     d="M285.18 254.46 C285.18 253.26 284.22 252.3 283.02 252.3 C281.82 252.3 280.86 253.26 280.86 254.46 C280.86 255.66 281.82 256.62 283.02 256.62 C284.22 256.62 285.18 255.66 285.18 254.46 Z"
     id="path44" />
  <path
     fill="none"
     clip-path="url(#clipPath1)"
     stroke="#1a466e"
     stroke-width="0.96"
     d="M285.18 254.46 C285.18 253.26 284.22 252.3 283.02 252.3 C281.82 252.3 280.86 253.26 280.86 254.46 C280.86 255.66 281.82 256.62 283.02 256.62 C284.22 256.62 285.18 255.66 285.18 254.46 Z"
     id="path46" />
  <path
     stroke="black"
     clip-path="url(#clipPath1)"
     fill="#1a466e"
     stroke-width="0.96"
     d="M291.42 300.36 C291.42 299.16 290.46 298.2 289.26 298.2 C288.06 298.2 287.1 299.16 287.1 300.36 C287.1 301.56 288.06 302.52 289.26 302.52 C290.46 302.52 291.42 301.56 291.42 300.36 Z"
     id="path48" />
  <path
     fill="none"
     clip-path="url(#clipPath1)"
     stroke="#1a466e"
     stroke-width="0.96"
     d="M291.42 300.36 C291.42 299.16 290.46 298.2 289.26 298.2 C288.06 298.2 287.1 299.16 287.1 300.36 C287.1 301.56 288.06 302.52 289.26 302.52 C290.46 302.52 291.42 301.56 291.42 300.36 Z"
     id="path50" />
  <path
     stroke="black"
     clip-path="url(#clipPath1)"
     fill="#1a466e"
     stroke-width="0.96"
     d="M294.3 249.66 C294.3 248.46 293.34 247.5 292.14 247.5 C290.94 247.5 289.98 248.46 289.98 249.66 C289.98 250.86 290.94 251.82 292.14 251.82 C293.34 251.82 294.3 250.86 294.3 249.66 Z"
     id="path52" />
  <path
     fill="none"
     clip-path="url(#clipPath1)"
     stroke="#1a466e"
     stroke-width="0.96"
     d="M294.3 249.66 C294.3 248.46 293.34 247.5 292.14 247.5 C290.94 247.5 289.98 248.46 289.98 249.66 C289.98 250.86 290.94 251.82 292.14 251.82 C293.34 251.82 294.3 250.86 294.3 249.66 Z"
     id="path54" />
  <path
     stroke="black"
     clip-path="url(#clipPath1)"
     fill="#1a466e"
     stroke-width="0.96"
     d="M313.02 233.1 C313.02 231.9 312.06 230.94 310.86 230.94 C309.66 230.94 308.7 231.9 308.7 233.1 C308.7 234.3 309.66 235.26 310.86 235.26 C312.06 235.26 313.02 234.3 313.02 233.1 Z"
     id="path56" />
  <path
     fill="none"
     clip-path="url(#clipPath1)"
     stroke="#1a466e"
     stroke-width="0.96"
     d="M313.02 233.1 C313.02 231.9 312.06 230.94 310.86 230.94 C309.66 230.94 308.7 231.9 308.7 233.1 C308.7 234.3 309.66 235.26 310.86 235.26 C312.06 235.26 313.02 234.3 313.02 233.1 Z"
     id="path58" />
  <path
     stroke="black"
     clip-path="url(#clipPath1)"
     fill="#1a466e"
     stroke-width="0.96"
     d="M313.98 245.1 C313.98 243.9 313.02 242.94 311.82 242.94 C310.62 242.94 309.66 243.9 309.66 245.1 C309.66 246.3 310.62 247.26 311.82 247.26 C313.02 247.26 313.98 246.3 313.98 245.1 Z"
     id="path60" />
  <path
     fill="none"
     clip-path="url(#clipPath1)"
     stroke="#1a466e"
     stroke-width="0.96"
     d="M313.98 245.1 C313.98 243.9 313.02 242.94 311.82 242.94 C310.62 242.94 309.66 243.9 309.66 245.1 C309.66 246.3 310.62 247.26 311.82 247.26 C313.02 247.26 313.98 246.3 313.98 245.1 Z"
     id="path62" />
  <path
     stroke="black"
     clip-path="url(#clipPath1)"
     fill="#1a466e"
     stroke-width="0.96"
     d="M321.18 271.08 C321.18 269.88 320.22 268.92 319.02 268.92 C317.82 268.92 316.86 269.88 316.86 271.08 C316.86 272.22 317.82 273.24 319.02 273.24 C320.22 273.24 321.18 272.22 321.18 271.08 Z"
     id="path64" />
  <path
     fill="none"
     clip-path="url(#clipPath1)"
     stroke="#1a466e"
     stroke-width="0.96"
     d="M321.18 271.08 C321.18 269.88 320.22 268.92 319.02 268.92 C317.82 268.92 316.86 269.88 316.86 271.08 C316.86 272.22 317.82 273.24 319.02 273.24 C320.22 273.24 321.18 272.22 321.18 271.08 Z"
     id="path66" />
  <path
     stroke="black"
     clip-path="url(#clipPath1)"
     fill="#1a466e"
     stroke-width="0.96"
     d="M325.98 277.56 C325.98 276.36 325.02 275.4 323.82 275.4 C322.62 275.4 321.66 276.36 321.66 277.56 C321.66 278.76 322.62 279.72 323.82 279.72 C325.02 279.72 325.98 278.76 325.98 277.56 Z"
     id="path68" />
  <path
     fill="none"
     clip-path="url(#clipPath1)"
     stroke="#1a466e"
     stroke-width="0.96"
     d="M325.98 277.56 C325.98 276.36 325.02 275.4 323.82 275.4 C322.62 275.4 321.66 276.36 321.66 277.56 C321.66 278.76 322.62 279.72 323.82 279.72 C325.02 279.72 325.98 278.76 325.98 277.56 Z"
     id="path70" />
  <path
     stroke="black"
     clip-path="url(#clipPath1)"
     fill="#1a466e"
     stroke-width="0.96"
     d="M326.7 287.4 C326.7 286.2 325.74 285.24 324.54 285.24 C323.34 285.24 322.38 286.2 322.38 287.4 C322.38 288.6 323.34 289.56 324.54 289.56 C325.74 289.56 326.7 288.6 326.7 287.4 Z"
     id="path72" />
  <path
     fill="none"
     clip-path="url(#clipPath1)"
     stroke="#1a466e"
     stroke-width="0.96"
     d="M326.7 287.4 C326.7 286.2 325.74 285.24 324.54 285.24 C323.34 285.24 322.38 286.2 322.38 287.4 C322.38 288.6 323.34 289.56 324.54 289.56 C325.74 289.56 326.7 288.6 326.7 287.4 Z"
     id="path74" />
  <path
     stroke="black"
     clip-path="url(#clipPath1)"
     fill="#1a466e"
     stroke-width="0.96"
     d="M326.7 269.64 C326.7 268.44 325.74 267.48 324.54 267.48 C323.34 267.48 322.38 268.44 322.38 269.64 C322.38 270.78 323.34 271.8 324.54 271.8 C325.74 271.8 326.7 270.78 326.7 269.64 Z"
     id="path76" />
  <path
     fill="none"
     clip-path="url(#clipPath1)"
     stroke="#1a466e"
     stroke-width="0.96"
     d="M326.7 269.64 C326.7 268.44 325.74 267.48 324.54 267.48 C323.34 267.48 322.38 268.44 322.38 269.64 C322.38 270.78 323.34 271.8 324.54 271.8 C325.74 271.8 326.7 270.78 326.7 269.64 Z"
     id="path78" />
  <path
     stroke="black"
     clip-path="url(#clipPath1)"
     fill="#1a466e"
     stroke-width="0.96"
     d="M354.12 324.36 C354.12 323.16 353.16 322.2 351.96 322.2 C350.76 322.2 349.8 323.16 349.8 324.36 C349.8 325.56 350.76 326.52 351.96 326.52 C353.16 326.52 354.12 325.56 354.12 324.36 Z"
     id="path80" />
  <path
     fill="none"
     clip-path="url(#clipPath1)"
     stroke="#1a466e"
     stroke-width="0.96"
     d="M354.12 324.36 C354.12 323.16 353.16 322.2 351.96 322.2 C350.76 322.2 349.8 323.16 349.8 324.36 C349.8 325.56 350.76 326.52 351.96 326.52 C353.16 326.52 354.12 325.56 354.12 324.36 Z"
     id="path82" />
  <path
     stroke="black"
     clip-path="url(#clipPath1)"
     fill="#1a466e"
     stroke-width="0.96"
     d="M354.36 322.2 C354.36 321.0 353.4 320.04 352.2 320.04 C351.0 320.04 350.04 321.0 350.04 322.2 C350.04 323.4 351.0 324.36 352.2 324.36 C353.4 324.36 354.36 323.4 354.36 322.2 Z"
     id="path84" />
  <path
     fill="none"
     clip-path="url(#clipPath1)"
     stroke="#1a466e"
     stroke-width="0.96"
     d="M354.36 322.2 C354.36 321.0 353.4 320.04 352.2 320.04 C351.0 320.04 350.04 321.0 350.04 322.2 C350.04 323.4 351.0 324.36 352.2 324.36 C353.4 324.36 354.36 323.4 354.36 322.2 Z"
     id="path86" />
  <path
     stroke="black"
     clip-path="url(#clipPath1)"
     fill="#1a466e"
     stroke-width="0.96"
     d="M360.12 318.6 C360.12 317.4 359.16 316.44 357.96 316.44 C356.76 316.44 355.8 317.4 355.8 318.6 C355.8 319.8 356.76 320.76 357.96 320.76 C359.16 320.76 360.12 319.8 360.12 318.6 Z"
     id="path88" />
  <path
     fill="none"
     clip-path="url(#clipPath1)"
     stroke="#1a466e"
     stroke-width="0.96"
     d="M360.12 318.6 C360.12 317.4 359.16 316.44 357.96 316.44 C356.76 316.44 355.8 317.4 355.8 318.6 C355.8 319.8 356.76 320.76 357.96 320.76 C359.16 320.76 360.12 319.8 360.12 318.6 Z"
     id="path90" />
  <path
     stroke="black"
     clip-path="url(#clipPath1)"
     fill="#1a466e"
     stroke-width="0.96"
     d="M360.36 317.64 C360.36 316.44 359.4 315.48 358.2 315.48 C357.0 315.48 356.04 316.44 356.04 317.64 C356.04 318.84 357.0 319.8 358.2 319.8 C359.4 319.8 360.36 318.84 360.36 317.64 Z"
     id="path92" />
  <path
     fill="none"
     clip-path="url(#clipPath1)"
     stroke="#1a466e"
     stroke-width="0.96"
     d="M360.36 317.64 C360.36 316.44 359.4 315.48 358.2 315.48 C357.0 315.48 356.04 316.44 356.04 317.64 C356.04 318.84 357.0 319.8 358.2 319.8 C359.4 319.8 360.36 318.84 360.36 317.64 Z"
     id="path94" />
  <path
     fill="none"
     clip-path="url(#clipPath1)"
     stroke="#000000"
     stroke-width="0.96"
     d="M282.3 147.36 L278.7 151.68 M276.78 153.84 L273.18 158.4 M271.26 160.56 L267.66 165.12 M265.74 167.28 L262.079 171.6 M260.399 174.0 L256.56 178.32 M254.88 180.48 L251.04 185.04 M249.36 187.2 L245.76 191.76 M243.84 193.92 L240.24 198.3 M238.32 200.7 L234.72 205.02 M232.8 207.18 L229.2 211.74 M227.28 213.9 L223.68 218.46 M221.76 220.62 L218.16 224.94 M216.24 227.34 L212.64 231.66 M210.96 233.82 L207.12 238.38 M205.44 240.54 L201.6 245.1 M199.92 247.26 L196.02 251.58 M194.34 253.98 L190.74 258.3 M188.82 260.459 L185.22 265.02 M183.3 267.24 L179.7 271.8 M177.78 273.96 L174.18 278.28 M172.26 280.68 L168.66 285.0 M166.74 287.16 L163.14 291.72 M161.22 293.88 L157.62 298.44 M155.7 300.6 L152.1 304.92 M150.42 307.32 L146.58 311.64 M144.9 313.8 L141.06 318.36 M139.38 320.52 L136.26 324.36 M282.3 147.36 L285.9 151.68 M287.82 153.84 L291.42 158.4 M293.34 160.56 L296.94 165.12 M298.86 167.28 L302.46 171.6 M304.38 174.0 L307.98 178.32 M309.66 180.48 L313.5 185.04 M315.18 187.2 L319.02 191.76 M320.7 193.92 L324.3 198.3 M326.22 200.7 L329.82 205.02 M331.8 207.18 L335.4 211.74 M337.32 213.9 L340.92 218.46 M342.84 220.62 L346.44 224.94 M348.36 227.34 L351.96 231.66 M353.88 233.82 L357.48 238.38 M359.16 240.54 L363.0 245.1 M364.68 247.26 L368.52 251.58 M370.2 253.98 L374.04 258.3 M375.72 260.459 L379.32 265.02 M381.24 267.24 L384.84 271.8 M386.76 273.96 L390.36 278.28 M392.28 280.68 L395.88 285.0 M397.8 287.16 L401.46 291.72 M403.38 293.88 L406.98 298.44 M408.9 300.6 L412.5 304.92 M414.42 307.32 L418.02 311.64 M419.7 313.8 L423.54 318.36 M425.22 320.52 L428.34 324.36 M282.3 147.36 L282.3 324.36 "
     id="path96" />
  <path
     fill="none"
     clip-path="url(#clipPath1)"
     stroke="#000000"
     stroke-width="0.48"
     d="M114.12 365.22 L114.12 140.88 M114.12 147.36 L110.04 147.36 "
     id="path98" />
  <text
     stroke="none"
     fill="#000000"
     clip-path="url(#clipPath1)"
     svgx:fontName="ArialMT"
     svgx:width="556.0"
     transform="matrix(0.0,-1.0,1.0,0.0,-44.27969,255.95969)"
     x="105.84"
     y="150.12"
     font-size="10.089"
     font-family="Helvetica"
     font-weight="normal"
     id="text100">0</text>
  <path
     fill="none"
     clip-path="url(#clipPath1)"
     stroke="#000000"
     stroke-width="0.48"
     d="M114.12 200.22 L110.04 200.22 "
     id="path102" />
  <text
     stroke="none"
     fill="#000000"
     clip-path="url(#clipPath1)"
     svgx:fontName="ArialMT"
     svgx:width="556.0"
     transform="matrix(0.0,-1.0,1.0,0.0,-97.13968,308.81967)"
     x="105.84"
     y="202.98"
     font-size="10.089"
     font-family="Helvetica"
     font-weight="normal"
     id="text104">1</text>
  <path
     fill="none"
     clip-path="url(#clipPath1)"
     stroke="#000000"
     stroke-width="0.48"
     d="M114.12 253.02 L110.04 253.02 "
     id="path106" />
  <text
     stroke="none"
     fill="#000000"
     clip-path="url(#clipPath1)"
     svgx:fontName="ArialMT"
     svgx:width="556.0"
     transform="matrix(0.0,-1.0,1.0,0.0,-149.99973,361.67972)"
     x="105.84"
     y="255.84"
     font-size="10.089"
     font-family="Helvetica"
     font-weight="normal"
     id="text108">2</text>
  <path
     fill="none"
     clip-path="url(#clipPath1)"
     stroke="#000000"
     stroke-width="0.48"
     d="M114.12 306.12 L110.04 306.12 "
     id="path110" />
  <text
     stroke="none"
     fill="#000000"
     clip-path="url(#clipPath1)"
     svgx:fontName="ArialMT"
     svgx:width="556.0"
     transform="matrix(0.0,-1.0,1.0,0.0,-203.0997,414.77969)"
     x="105.84"
     y="308.94"
     font-size="10.089"
     font-family="Helvetica"
     font-weight="normal"
     id="text112">3</text>
  <path
     fill="none"
     clip-path="url(#clipPath1)"
     stroke="#000000"
     stroke-width="0.48"
     d="M114.12 358.98 L110.04 358.98 "
     id="path114" />
  <text
     stroke="none"
     fill="#000000"
     clip-path="url(#clipPath1)"
     svgx:fontName="ArialMT"
     svgx:width="556.0"
     transform="matrix(0.0,-1.0,1.0,0.0,-255.89969,467.57968)"
     x="105.84"
     y="361.74"
     font-size="10.089"
     font-family="Helvetica"
     font-weight="normal"
     id="text116">4</text>
  <text
     stroke="none"
     fill="#000000"
     clip-path="url(#clipPath1)"
     svgx:fontName="ArialMT"
     svgx:width="500.0"
     transform="matrix(0.0,-1.0,1.0,0.0,-193.97911,383.46352)"
     x="94.742"
     y="288.721"
     font-size="10.089"
     font-family="Helvetica"
     font-weight="normal"
     id="text118">s</text>
  <text
     stroke="none"
     fill="#000000"
     clip-path="url(#clipPath1)"
     svgx:fontName="ArialMT"
     svgx:width="278.0"
     transform="matrix(0.0,-1.0,1.0,0.0,-188.93498,378.41939)"
     x="94.742"
     y="283.677"
     font-size="10.089"
     font-family="Helvetica"
     font-weight="normal"
     id="text120">.</text>
  <text
     stroke="none"
     fill="#000000"
     clip-path="url(#clipPath1)"
     svgx:fontName="ArialMT"
     svgx:width="556.0"
     transform="matrix(0.0,-1.0,1.0,0.0,-186.04973,375.53413)"
     x="94.742"
     y="280.792"
     font-size="10.089"
     font-family="Helvetica"
     font-weight="normal"
     id="text122">e</text>
  <text
     stroke="none"
     fill="#000000"
     clip-path="url(#clipPath1)"
     svgx:fontName="ArialMT"
     svgx:width="278.0"
     transform="matrix(0.0,-1.0,1.0,0.0,-180.53148,370.01588)"
     x="94.742"
     y="275.274"
     font-size="10.089"
     font-family="Helvetica"
     font-weight="normal"
     id="text124">.</text>
  <text
     stroke="none"
     fill="#000000"
     clip-path="url(#clipPath1)"
     svgx:fontName="ArialMT"
     svgx:width="278.0"
     transform="matrix(0.0,-1.0,1.0,0.0,-177.64622,367.13063)"
     x="94.742"
     y="272.388"
     font-size="10.089"
     font-family="Helvetica"
     font-weight="normal"
     id="text126" />
  <text
     stroke="none"
     fill="#000000"
     clip-path="url(#clipPath1)"
     svgx:fontName="ArialMT"
     svgx:width="556.0"
     transform="matrix(0.0,-1.0,1.0,0.0,-174.76402,364.24843)"
     x="94.742"
     y="269.506"
     font-size="10.089"
     font-family="Helvetica"
     font-weight="normal"
     id="text128">o</text>
  <text
     stroke="none"
     fill="#000000"
     clip-path="url(#clipPath1)"
     svgx:fontName="ArialMT"
     svgx:width="278.0"
     transform="matrix(0.0,-1.0,1.0,0.0,-169.24577,358.73018)"
     x="94.742"
     y="263.988"
     font-size="10.089"
     font-family="Helvetica"
     font-weight="normal"
     id="text130">f</text>
  <text
     stroke="none"
     fill="#000000"
     clip-path="url(#clipPath1)"
     svgx:fontName="ArialMT"
     svgx:width="278.0"
     transform="matrix(0.0,-1.0,1.0,0.0,-166.36052,355.84492)"
     x="94.742"
     y="261.103"
     font-size="10.089"
     font-family="Helvetica"
     font-weight="normal"
     id="text132" />
  <text
     stroke="none"
     fill="#000000"
     clip-path="url(#clipPath1)"
     svgx:fontName="ArialMT"
     svgx:width="833.0"
     transform="matrix(0.0,-1.0,1.0,0.0,-163.47832,352.96272)"
     x="94.742"
     y="258.221"
     font-size="10.089"
     font-family="Helvetica"
     font-weight="normal"
     id="text134">M</text>
  <text
     stroke="none"
     fill="#000000"
     clip-path="url(#clipPath1)"
     svgx:fontName="ArialMT"
     svgx:width="722.0"
     transform="matrix(0.0,-1.0,1.0,0.0,-155.07481,344.55922)"
     x="94.742"
     y="249.817"
     font-size="10.089"
     font-family="Helvetica"
     font-weight="normal"
     id="text136">D</text>
  <text
     stroke="none"
     fill="#000000"
     clip-path="url(#clipPath1)"
     svgx:fontName="ArialMT"
     svgx:width="556.0"
     transform="matrix(0.0,-1.0,1.0,0.0,-147.88194,337.36635)"
     x="94.742"
     y="242.624"
     font-size="10.089"
     font-family="Helvetica"
     font-weight="normal"
     id="text138">_</text>
  <text
     stroke="none"
     fill="#000000"
     clip-path="url(#clipPath1)"
     svgx:fontName="ArialMT"
     svgx:width="667.0"
     transform="matrix(0.0,-1.0,1.0,0.0,-142.36369,331.8481)"
     x="94.742"
     y="237.106"
     font-size="10.089"
     font-family="Helvetica"
     font-weight="normal"
     id="text140">P</text>
  <text
     stroke="none"
     fill="#000000"
     clip-path="url(#clipPath1)"
     svgx:fontName="ArialMT"
     svgx:width="722.0"
     transform="matrix(0.0,-1.0,1.0,0.0,-135.5844,325.0688)"
     x="94.742"
     y="230.327"
     font-size="10.089"
     font-family="Helvetica"
     font-weight="normal"
     id="text142">C</text>
  <text
     stroke="none"
     fill="#000000"
     clip-path="url(#clipPath1)"
     svgx:fontName="ArialMT"
     svgx:width="556.0"
     transform="matrix(0.0,-1.0,1.0,0.0,-128.1494,317.6338)"
     x="94.742"
     y="222.892"
     font-size="10.089"
     font-family="Helvetica"
     font-weight="normal"
     id="text144">3</text>
  <path
     fill="none"
     clip-path="url(#clipPath1)"
     stroke="#000000"
     stroke-width="0.48"
     d="M114.12 365.22 L460.98 365.22 M120.36 365.22 L120.36 369.3 "
     id="path146" />
  <text
     stroke="none"
     fill="#000000"
     clip-path="url(#clipPath1)"
     svgx:fontName="ArialMT"
     svgx:width="333.0"
     x="115.98"
     y="380.28"
     font-size="10.089"
     font-family="Helvetica"
     font-weight="normal"
     id="text148">-</text>
  <text
     stroke="none"
     fill="#000000"
     clip-path="url(#clipPath1)"
     svgx:fontName="ArialMT"
     svgx:width="556.0"
     x="119.34"
     y="380.28"
     font-size="10.089"
     font-family="Helvetica"
     font-weight="normal"
     id="text150">5</text>
  <path
     fill="none"
     clip-path="url(#clipPath1)"
     stroke="#000000"
     stroke-width="0.48"
     d="M231.84 365.22 L231.84 369.3 "
     id="path152" />
  <text
     stroke="none"
     fill="#000000"
     clip-path="url(#clipPath1)"
     svgx:fontName="ArialMT"
     svgx:width="556.0"
     x="229.14"
     y="380.28"
     font-size="10.089"
     font-family="Helvetica"
     font-weight="normal"
     id="text154">0</text>
  <path
     fill="none"
     clip-path="url(#clipPath1)"
     stroke="#000000"
     stroke-width="0.48"
     d="M343.32 365.22 L343.32 369.3 "
     id="path156" />
  <text
     stroke="none"
     fill="#000000"
     clip-path="url(#clipPath1)"
     svgx:fontName="ArialMT"
     svgx:width="556.0"
     x="340.56"
     y="380.28"
     font-size="10.089"
     font-family="Helvetica"
     font-weight="normal"
     id="text158">5</text>
  <path
     fill="none"
     clip-path="url(#clipPath1)"
     stroke="#000000"
     stroke-width="0.48"
     d="M454.74 365.22 L454.74 369.3 "
     id="path160" />
  <text
     stroke="none"
     fill="#000000"
     clip-path="url(#clipPath1)"
     svgx:fontName="ArialMT"
     svgx:width="556.0"
     x="449.16"
     y="380.28"
     font-size="10.089"
     font-family="Helvetica"
     font-weight="normal"
     id="text162">1</text>
  <text
     stroke="none"
     fill="#000000"
     clip-path="url(#clipPath1)"
     svgx:fontName="ArialMT"
     svgx:width="556.0"
     x="454.679"
     y="380.28"
     font-size="10.089"
     font-family="Helvetica"
     font-weight="normal"
     id="text164">0</text>
  <text
     stroke="none"
     fill="#000000"
     clip-path="url(#clipPath1)"
     svgx:fontName="ArialMT"
     svgx:width="833.0"
     x="267.176"
     y="390.176"
     font-size="10.089"
     font-family="Helvetica"
     font-weight="normal"
     id="text166">M</text>
  <text
     stroke="none"
     fill="#000000"
     clip-path="url(#clipPath1)"
     svgx:fontName="ArialMT"
     svgx:width="722.0"
     x="275.565"
     y="390.176"
     font-size="10.089"
     font-family="Helvetica"
     font-weight="normal"
     id="text168">D</text>
  <text
     stroke="none"
     fill="#000000"
     clip-path="url(#clipPath1)"
     svgx:fontName="ArialMT"
     svgx:width="556.0"
     x="282.834"
     y="390.176"
     font-size="10.089"
     font-family="Helvetica"
     font-weight="normal"
     id="text170">_</text>
  <text
     stroke="none"
     fill="#000000"
     clip-path="url(#clipPath1)"
     svgx:fontName="ArialMT"
     svgx:width="667.0"
     x="288.59"
     y="390.176"
     font-size="10.089"
     font-family="Helvetica"
     font-weight="normal"
     id="text172">P</text>
  <text
     stroke="none"
     fill="#000000"
     clip-path="url(#clipPath1)"
     svgx:fontName="ArialMT"
     svgx:width="722.0"
     x="295.314"
     y="390.176"
     font-size="10.089"
     font-family="Helvetica"
     font-weight="normal"
     id="text174">C</text>
  <text
     stroke="none"
     fill="#000000"
     clip-path="url(#clipPath1)"
     svgx:fontName="ArialMT"
     svgx:width="556.0"
     x="302.513"
     y="390.176"
     font-size="10.089"
     font-family="Helvetica"
     font-weight="normal"
     id="text176">3</text>
  <text
     stroke="none"
     fill="#000000"
     clip-path="url(#clipPath1)"
     svgx:fontName="ArialMT"
     svgx:width="611.0"
     x="174.42"
     y="136.8"
     font-size="11.049"
     font-family="Helvetica"
     font-weight="normal"
     id="text178">F</text>
  <text
     stroke="none"
     fill="#000000"
     clip-path="url(#clipPath1)"
     svgx:fontName="ArialMT"
     svgx:width="556.0"
     x="181.14"
     y="136.8"
     font-size="11.049"
     font-family="Helvetica"
     font-weight="normal"
     id="text180">u</text>
  <text
     stroke="none"
     fill="#000000"
     clip-path="url(#clipPath1)"
     svgx:fontName="ArialMT"
     svgx:width="556.0"
     x="187.441"
     y="136.8"
     font-size="11.049"
     font-family="Helvetica"
     font-weight="normal"
     id="text182">n</text>
  <text
     stroke="none"
     fill="#000000"
     clip-path="url(#clipPath1)"
     svgx:fontName="ArialMT"
     svgx:width="556.0"
     x="193.443"
     y="136.8"
     font-size="11.049"
     font-family="Helvetica"
     font-weight="normal"
     id="text184">n</text>
  <text
     stroke="none"
     fill="#000000"
     clip-path="url(#clipPath1)"
     svgx:fontName="ArialMT"
     svgx:width="556.0"
     x="199.678"
     y="136.8"
     font-size="11.049"
     font-family="Helvetica"
     font-weight="normal"
     id="text186">e</text>
  <text
     stroke="none"
     fill="#000000"
     clip-path="url(#clipPath1)"
     svgx:fontName="ArialMT"
     svgx:width="222.0"
     x="205.68"
     y="136.8"
     font-size="11.049"
     font-family="Helvetica"
     font-weight="normal"
     id="text188">l</text>
  <text
     stroke="none"
     fill="#000000"
     clip-path="url(#clipPath1)"
     svgx:fontName="ArialMT"
     svgx:width="278.0"
     x="208.08"
     y="136.8"
     font-size="11.049"
     font-family="Helvetica"
     font-weight="normal"
     id="text190" />
  <text
     stroke="none"
     fill="#000000"
     clip-path="url(#clipPath1)"
     svgx:fontName="ArialMT"
     svgx:width="556.0"
     x="211.201"
     y="136.8"
     font-size="11.049"
     font-family="Helvetica"
     font-weight="normal"
     id="text192">p</text>
  <text
     stroke="none"
     fill="#000000"
     clip-path="url(#clipPath1)"
     svgx:fontName="ArialMT"
     svgx:width="222.0"
     x="217.425"
     y="136.8"
     font-size="11.049"
     font-family="Helvetica"
     font-weight="normal"
     id="text194">l</text>
  <text
     stroke="none"
     fill="#000000"
     clip-path="url(#clipPath1)"
     svgx:fontName="ArialMT"
     svgx:width="556.0"
     x="219.825"
     y="136.8"
     font-size="11.049"
     font-family="Helvetica"
     font-weight="normal"
     id="text196">o</text>
  <text
     stroke="none"
     fill="#000000"
     clip-path="url(#clipPath1)"
     svgx:fontName="ArialMT"
     svgx:width="278.0"
     x="225.827"
     y="136.8"
     font-size="11.049"
     font-family="Helvetica"
     font-weight="normal"
     id="text198">t</text>
  <text
     stroke="none"
     fill="#000000"
     clip-path="url(#clipPath1)"
     svgx:fontName="ArialMT"
     svgx:width="278.0"
     x="228.945"
     y="136.8"
     font-size="11.049"
     font-family="Helvetica"
     font-weight="normal"
     id="text200" />
  <text
     stroke="none"
     fill="#000000"
     clip-path="url(#clipPath1)"
     svgx:fontName="ArialMT"
     svgx:width="722.0"
     x="232.067"
     y="136.8"
     font-size="11.049"
     font-family="Helvetica"
     font-weight="normal"
     id="text202">w</text>
  <text
     stroke="none"
     fill="#000000"
     clip-path="url(#clipPath1)"
     svgx:fontName="ArialMT"
     svgx:width="222.0"
     x="239.981"
     y="136.8"
     font-size="11.049"
     font-family="Helvetica"
     font-weight="normal"
     id="text204">i</text>
  <text
     stroke="none"
     fill="#000000"
     clip-path="url(#clipPath1)"
     svgx:fontName="ArialMT"
     svgx:width="278.0"
     x="242.381"
     y="136.8"
     font-size="11.049"
     font-family="Helvetica"
     font-weight="normal"
     id="text206">t</text>
  <text
     stroke="none"
     fill="#000000"
     clip-path="url(#clipPath1)"
     svgx:fontName="ArialMT"
     svgx:width="556.0"
     x="245.532"
     y="136.8"
     font-size="11.049"
     font-family="Helvetica"
     font-weight="normal"
     id="text208">h</text>
  <text
     stroke="none"
     fill="#000000"
     clip-path="url(#clipPath1)"
     svgx:fontName="ArialMT"
     svgx:width="278.0"
     x="251.833"
     y="136.8"
     font-size="11.049"
     font-family="Helvetica"
     font-weight="normal"
     id="text210" />
  <text
     stroke="none"
     fill="#000000"
     clip-path="url(#clipPath1)"
     svgx:fontName="ArialMT"
     svgx:width="556.0"
     x="254.711"
     y="136.8"
     font-size="11.049"
     font-family="Helvetica"
     font-weight="normal"
     id="text212">p</text>
  <text
     stroke="none"
     fill="#000000"
     clip-path="url(#clipPath1)"
     svgx:fontName="ArialMT"
     svgx:width="500.0"
     x="260.934"
     y="136.8"
     font-size="11.049"
     font-family="Helvetica"
     font-weight="normal"
     id="text214">s</text>
  <text
     stroke="none"
     fill="#000000"
     clip-path="url(#clipPath1)"
     svgx:fontName="ArialMT"
     svgx:width="556.0"
     x="266.45"
     y="136.8"
     font-size="11.049"
     font-family="Helvetica"
     font-weight="normal"
     id="text216">e</text>
  <text
     stroke="none"
     fill="#000000"
     clip-path="url(#clipPath1)"
     svgx:fontName="ArialMT"
     svgx:width="556.0"
     x="272.453"
     y="136.8"
     font-size="11.049"
     font-family="Helvetica"
     font-weight="normal"
     id="text218">u</text>
  <text
     stroke="none"
     fill="#000000"
     clip-path="url(#clipPath1)"
     svgx:fontName="ArialMT"
     svgx:width="556.0"
     x="278.676"
     y="136.8"
     font-size="11.049"
     font-family="Helvetica"
     font-weight="normal"
     id="text220">d</text>
  <text
     stroke="none"
     fill="#000000"
     clip-path="url(#clipPath1)"
     svgx:fontName="ArialMT"
     svgx:width="556.0"
     x="284.899"
     y="136.8"
     font-size="11.049"
     font-family="Helvetica"
     font-weight="normal"
     id="text222">o</text>
  <text
     stroke="none"
     fill="#000000"
     clip-path="url(#clipPath1)"
     svgx:fontName="ArialMT"
     svgx:width="278.0"
     x="290.901"
     y="136.8"
     font-size="11.049"
     font-family="Helvetica"
     font-weight="normal"
     id="text224" />
  <text
     stroke="none"
     fill="#000000"
     clip-path="url(#clipPath1)"
     svgx:fontName="ArialMT"
     svgx:width="556.0"
     x="294.023"
     y="136.8"
     font-size="11.049"
     font-family="Helvetica"
     font-weight="normal"
     id="text226">9</text>
  <text
     stroke="none"
     fill="#000000"
     clip-path="url(#clipPath1)"
     svgx:fontName="ArialMT"
     svgx:width="556.0"
     x="300.025"
     y="136.8"
     font-size="11.049"
     font-family="Helvetica"
     font-weight="normal"
     id="text228">5</text>
  <text
     stroke="none"
     fill="#000000"
     clip-path="url(#clipPath1)"
     svgx:fontName="ArialMT"
     svgx:width="889.0"
     x="306.259"
     y="136.8"
     font-size="11.049"
     font-family="Helvetica"
     font-weight="normal"
     id="text230">%</text>
  <text
     stroke="none"
     fill="#000000"
     clip-path="url(#clipPath1)"
     svgx:fontName="ArialMT"
     svgx:width="278.0"
     x="316.096"
     y="136.8"
     font-size="11.049"
     font-family="Helvetica"
     font-weight="normal"
     id="text232" />
  <text
     stroke="none"
     fill="#000000"
     clip-path="url(#clipPath1)"
     svgx:fontName="ArialMT"
     svgx:width="500.0"
     x="319.273"
     y="136.8"
     font-size="11.049"
     font-family="Helvetica"
     font-weight="normal"
     id="text234">c</text>
  <text
     stroke="none"
     fill="#000000"
     clip-path="url(#clipPath1)"
     svgx:fontName="ArialMT"
     svgx:width="556.0"
     x="324.789"
     y="136.8"
     font-size="11.049"
     font-family="Helvetica"
     font-weight="normal"
     id="text236">o</text>
  <text
     stroke="none"
     fill="#000000"
     clip-path="url(#clipPath1)"
     svgx:fontName="ArialMT"
     svgx:width="556.0"
     x="330.791"
     y="136.8"
     font-size="11.049"
     font-family="Helvetica"
     font-weight="normal"
     id="text238">n</text>
  <text
     stroke="none"
     fill="#000000"
     clip-path="url(#clipPath1)"
     svgx:fontName="ArialMT"
     svgx:width="278.0"
     x="337.014"
     y="136.8"
     font-size="11.049"
     font-family="Helvetica"
     font-weight="normal"
     id="text240">f</text>
  <text
     stroke="none"
     fill="#000000"
     clip-path="url(#clipPath1)"
     svgx:fontName="ArialMT"
     svgx:width="222.0"
     x="339.901"
     y="136.8"
     font-size="11.049"
     font-family="Helvetica"
     font-weight="normal"
     id="text242">i</text>
  <text
     stroke="none"
     fill="#000000"
     clip-path="url(#clipPath1)"
     svgx:fontName="ArialMT"
     svgx:width="556.0"
     x="342.544"
     y="136.8"
     font-size="11.049"
     font-family="Helvetica"
     font-weight="normal"
     id="text244">d</text>
  <text
     stroke="none"
     fill="#000000"
     clip-path="url(#clipPath1)"
     svgx:fontName="ArialMT"
     svgx:width="556.0"
     x="348.546"
     y="136.8"
     font-size="11.049"
     font-family="Helvetica"
     font-weight="normal"
     id="text246">e</text>
  <text
     stroke="none"
     fill="#000000"
     clip-path="url(#clipPath1)"
     svgx:fontName="ArialMT"
     svgx:width="556.0"
     x="354.769"
     y="136.8"
     font-size="11.049"
     font-family="Helvetica"
     font-weight="normal"
     id="text248">n</text>
  <text
     stroke="none"
     fill="#000000"
     clip-path="url(#clipPath1)"
     svgx:fontName="ArialMT"
     svgx:width="500.0"
     x="360.771"
     y="136.8"
     font-size="11.049"
     font-family="Helvetica"
     font-weight="normal"
     id="text250">c</text>
  <text
     stroke="none"
     fill="#000000"
     clip-path="url(#clipPath1)"
     svgx:fontName="ArialMT"
     svgx:width="556.0"
     x="366.287"
     y="136.8"
     font-size="11.049"
     font-family="Helvetica"
     font-weight="normal"
     id="text252">e</text>
  <text
     stroke="none"
     fill="#000000"
     clip-path="url(#clipPath1)"
     svgx:fontName="ArialMT"
     svgx:width="278.0"
     x="372.522"
     y="136.8"
     font-size="11.049"
     font-family="Helvetica"
     font-weight="normal"
     id="text254" />
  <text
     stroke="none"
     fill="#000000"
     clip-path="url(#clipPath1)"
     svgx:fontName="ArialMT"
     svgx:width="222.0"
     x="375.643"
     y="136.8"
     font-size="11.049"
     font-family="Helvetica"
     font-weight="normal"
     id="text256">l</text>
  <text
     stroke="none"
     fill="#000000"
     clip-path="url(#clipPath1)"
     svgx:fontName="ArialMT"
     svgx:width="222.0"
     x="378.043"
     y="136.8"
     font-size="11.049"
     font-family="Helvetica"
     font-weight="normal"
     id="text258">i</text>
  <text
     stroke="none"
     fill="#000000"
     clip-path="url(#clipPath1)"
     svgx:fontName="ArialMT"
     svgx:width="833.0"
     x="380.443"
     y="136.8"
     font-size="11.049"
     font-family="Helvetica"
     font-weight="normal"
     id="text260">m</text>
  <text
     stroke="none"
     fill="#000000"
     clip-path="url(#clipPath1)"
     svgx:fontName="ArialMT"
     svgx:width="222.0"
     x="389.628"
     y="136.8"
     font-size="11.049"
     font-family="Helvetica"
     font-weight="normal"
     id="text262">i</text>
  <text
     stroke="none"
     fill="#000000"
     clip-path="url(#clipPath1)"
     svgx:fontName="ArialMT"
     svgx:width="278.0"
     x="392.26"
     y="136.8"
     font-size="11.049"
     font-family="Helvetica"
     font-weight="normal"
     id="text264">t</text>
  <text
     stroke="none"
     fill="#000000"
     clip-path="url(#clipPath1)"
     svgx:fontName="ArialMT"
     svgx:width="500.0"
     x="395.146"
     y="136.8"
     font-size="11.049"
     font-family="Helvetica"
     font-weight="normal"
     id="text266">s</text>
  <text
     stroke="none"
     fill="#000000"
     clip-path="url(#clipPath1)"
     svgx:fontName="TimesNewRomanPS-BoldMT"
     svgx:width="250.0"
     x="474.06"
     y="407.34"
     font-size="12.0"
     font-family="TimesNewRoman"
     font-weight="bold"
     id="text268" />
  <text
     stroke="none"
     fill="#000000"
     clip-path="url(#clipPath1)"
     svgx:fontName="TimesNewRomanPS-BoldMT"
     svgx:width="250.0"
     x="80.638"
     y="418.5"
     font-size="12.0"
     font-family="TimesNewRoman"
     font-weight="bold"
     id="text272" />
  <text
     stroke="none"
     fill="#000000"
     clip-path="url(#clipPath1)"
     svgx:fontName="ArialMT"
     svgx:width="278.0"
     transform="matrix(0.0,-1.0,1.0,0.0,-484.06737,673.55177)"
     x="94.742"
     y="578.81"
     font-size="10.089"
     font-family="Helvetica"
     font-weight="normal"
     id="text388" />
  <text
     stroke="none"
     fill="#000000"
     clip-path="url(#clipPath1)"
     svgx:fontName="ArialMT"
     svgx:width="278.0"
     transform="matrix(0.0,-1.0,1.0,0.0,-472.7827,662.26711)"
     x="94.742"
     y="567.525"
     font-size="10.089"
     font-family="Helvetica"
     font-weight="normal"
     id="text394" />
  <text
     stroke="none"
     fill="#000000"
     clip-path="url(#clipPath1)"
     svgx:fontName="ArialMT"
     svgx:width="278.0"
     x="208.08"
     y="444.54"
     font-size="11.049"
     font-family="Helvetica"
     font-weight="normal"
     id="text452" />
  <text
     stroke="none"
     fill="#000000"
     clip-path="url(#clipPath1)"
     svgx:fontName="ArialMT"
     svgx:width="278.0"
     x="228.945"
     y="444.54"
     font-size="11.049"
     font-family="Helvetica"
     font-weight="normal"
     id="text462" />
  <text
     stroke="none"
     fill="#000000"
     clip-path="url(#clipPath1)"
     svgx:fontName="ArialMT"
     svgx:width="278.0"
     x="251.833"
     y="444.54"
     font-size="11.049"
     font-family="Helvetica"
     font-weight="normal"
     id="text472" />
  <text
     stroke="none"
     fill="#000000"
     clip-path="url(#clipPath1)"
     svgx:fontName="ArialMT"
     svgx:width="278.0"
     x="290.901"
     y="444.54"
     font-size="11.049"
     font-family="Helvetica"
     font-weight="normal"
     id="text486" />
  <text
     stroke="none"
     fill="#000000"
     clip-path="url(#clipPath1)"
     svgx:fontName="ArialMT"
     svgx:width="278.0"
     x="316.096"
     y="444.54"
     font-size="11.049"
     font-family="Helvetica"
     font-weight="normal"
     id="text494" />
  <text
     stroke="none"
     fill="#000000"
     clip-path="url(#clipPath1)"
     svgx:fontName="ArialMT"
     svgx:width="278.0"
     x="372.522"
     y="444.54"
     font-size="11.049"
     font-family="Helvetica"
     font-weight="normal"
     id="text516" />
  <text
     stroke="none"
     fill="#000000"
     clip-path="url(#clipPath1)"
     svgx:fontName="TimesNewRomanPS-BoldMT"
     svgx:width="250.0"
     x="474.06"
     y="715.08"
     font-size="12.0"
     font-family="TimesNewRoman"
     font-weight="bold"
     id="text530" />
  <text
     stroke="none"
     fill="#000000"
     clip-path="url(#clipPath1)"
     svgx:fontName="TimesNewRomanPS-BoldMT"
     svgx:width="250.0"
     x="72.0"
     y="726.24"
     font-size="12.0"
     font-family="TimesNewRoman"
     font-weight="bold"
     id="text532" />
  <text
     stroke="none"
     fill="#000000"
     clip-path="url(#clipPath1)"
     svgx:fontName="TimesNewRomanPS-BoldMT"
     svgx:width="250.0"
     x="72.0"
     y="740.04"
     font-size="12.0"
     font-family="TimesNewRoman"
     font-weight="bold"
     id="text534" />
  <text
     stroke="none"
     fill="#000000"
     clip-path="url(#clipPath1)"
     svgx:fontName="TimesNewRomanPS-BoldMT"
     svgx:width="250.0"
     x="72.0"
     y="753.84"
     font-size="12.0"
     font-family="TimesNewRoman"
     font-weight="bold"
     id="text536" />
</svg>
