<?xml version="1.0" encoding="UTF-8"?>
<svg height="800.0" width="700.0" xmlns="http://www.w3.org/2000/svg">
 <g>
  <g stroke="pink">
   <path id="path11115" stroke-width="4.0" fill="#ffffff" clip-path="url(#clipPath2)" stroke="black" signature="MLLLZ" d="M322.722 360.09 L524.44 360.09 L524.44 520.841 L322.722 520.841 Z"/>
   <path id="path11117" d="M322.722 360.09 L524.44 360.09 L524.44 520.841 L322.722 520.841 Z" stroke-width="2.0" stroke="#ffffff" clip-path="url(#clipPath2)" fill="none" signature="MLLLZ"/>
   <path id="path11119" stroke-width="4.0" stroke="#eaf1f3" clip-path="url(#clipPath2)" fill="none" signature="ML" d="M322.722 364.737 L524.44 364.737 "/>
   <path id="path11121" stroke-width="4.0" stroke="#eaf1f3" clip-path="url(#clipPath2)" fill="none" signature="ML" d="M322.722 402.601 L524.44 402.601 "/>
   <path id="path11123" stroke-width="4.0" stroke="#eaf1f3" clip-path="url(#clipPath2)" fill="none" signature="ML" d="M322.722 440.465 L524.44 440.465 "/>
   <path id="path11125" stroke-width="4.0" stroke="#eaf1f3" clip-path="url(#clipPath2)" fill="none" signature="ML" d="M322.722 478.502 L524.44 478.502 "/>
   <path id="path11127" stroke-width="4.0" stroke="#eaf1f3" clip-path="url(#clipPath2)" fill="none" signature="ML" d="M322.722 516.366 L524.44 516.366 "/>
   <path id="path11129" stroke-width="4.0" stroke="#1a466e" clip-path="url(#clipPath8)" fill="none" signature="MCCCCZ" d="M447.19 413.616 C447.19 412.756 447.748 412.067 448.447 412.067 C449.145 412.067 449.704 412.756 449.704 413.616 C449.704 414.477 449.145 415.165 448.447 415.165 C447.748 415.165 447.19 414.477 447.19 413.616 Z"/>
   <path id="path11131" stroke-width="4.0" stroke="#1a466e" clip-path="url(#clipPath8)" fill="none" signature="MCCCCZ" d="M420.648 442.531 C420.648 441.67 421.206 440.982 421.905 440.982 C422.603 440.982 423.162 441.67 423.162 442.531 C423.162 443.391 422.603 444.08 421.905 444.08 C421.206 444.08 420.648 443.391 420.648 442.531 Z"/>
   <path id="path11133" stroke-width="4.0" stroke="#1a466e" clip-path="url(#clipPath8)" fill="none" signature="MCCCCZ" d="M396.061 496.229 C396.061 495.369 396.62 494.68 397.319 494.68 C398.017 494.68 398.576 495.369 398.576 496.229 C398.576 497.09 398.017 497.779 397.319 497.779 C396.62 497.779 396.061 497.09 396.061 496.229 Z"/>
   <path id="path11135" stroke-width="4.0" stroke="#1a466e" clip-path="url(#clipPath8)" fill="none" signature="MCCCCZ" d="M429.169 422.394 C429.169 421.533 429.728 420.845 430.426 420.845 C431.125 420.845 431.684 421.533 431.684 422.394 C431.684 423.254 431.125 423.943 430.426 423.943 C429.728 423.943 429.169 423.254 429.169 422.394 Z"/>
   <path id="path11137" stroke-width="4.0" stroke="#1a466e" clip-path="url(#clipPath8)" fill="none" signature="MCCCCZ" d="M401.649 407.076 C401.649 406.215 402.177 405.527 402.837 405.527 C403.496 405.527 404.024 406.215 404.024 407.076 C404.024 407.936 403.496 408.625 402.837 408.625 C402.177 408.625 401.649 407.936 401.649 407.076 Z"/>
   <path id="path11139" stroke-width="4.0" stroke="#1a466e" clip-path="url(#clipPath8)" fill="none" signature="MCCCCZ" d="M431.404 426.352 C431.404 425.492 431.963 424.803 432.661 424.803 C433.36 424.803 433.919 425.492 433.919 426.352 C433.919 427.213 433.36 427.901 432.661 427.901 C431.963 427.901 431.404 427.213 431.404 426.352 Z"/>
   <path id="path11141" stroke-width="4.0" stroke="#1a466e" clip-path="url(#clipPath8)" fill="none" signature="MCCCCZ" d="M431.823 451.308 C431.823 450.448 432.351 449.759 433.011 449.759 C433.67 449.759 434.198 450.448 434.198 451.308 C434.198 452.169 433.67 452.857 433.011 452.857 C432.351 452.857 431.823 452.169 431.823 451.308 Z"/>
   <path id="path11143" stroke-width="4.0" stroke="#1a466e" clip-path="url(#clipPath8)" fill="none" signature="MCCCCZ" d="M414.222 432.72 C414.222 431.86 414.78 431.171 415.479 431.171 C416.177 431.171 416.736 431.86 416.736 432.72 C416.736 433.581 416.177 434.269 415.479 434.269 C414.78 434.269 414.222 433.581 414.222 432.72 Z"/>
   <path id="path11145" stroke-width="4.0" stroke="#1a466e" clip-path="url(#clipPath8)" fill="none" signature="MCCCCZ" d="M421.206 416.37 C421.206 415.509 421.734 414.821 422.394 414.821 C423.053 414.821 423.581 415.509 423.581 416.37 C423.581 417.23 423.053 417.919 422.394 417.919 C421.734 417.919 421.206 417.23 421.206 416.37 Z"/>
   <path id="path11147" stroke-width="4.0" stroke="#1a466e" clip-path="url(#clipPath8)" fill="none" signature="MCCCCZ" d="M436.154 433.409 C436.154 432.548 436.712 431.86 437.411 431.86 C438.109 431.86 438.668 432.548 438.668 433.409 C438.668 434.27 438.109 434.958 437.411 434.958 C436.712 434.958 436.154 434.27 436.154 433.409 Z"/>
   <path id="path11149" stroke-width="4.0" stroke="#1a466e" clip-path="url(#clipPath8)" fill="none" signature="MCCCCZ" d="M439.367 435.991 C439.367 435.13 439.894 434.442 440.554 434.442 C441.214 434.442 441.741 435.13 441.741 435.991 C441.741 436.851 441.214 437.54 440.554 437.54 C439.894 437.54 439.367 436.851 439.367 435.991 Z"/>
   <path id="path11151" stroke-width="4.0" stroke="#1a466e" clip-path="url(#clipPath8)" fill="none" signature="MCCCCZ" d="M414.222 429.967 C414.222 429.106 414.78 428.418 415.479 428.418 C416.177 428.418 416.736 429.106 416.736 429.967 C416.736 430.827 416.177 431.516 415.479 431.516 C414.78 431.516 414.222 430.827 414.222 429.967 Z"/>
   <path id="path11153" stroke-width="4.0" stroke="#1a466e" clip-path="url(#clipPath8)" fill="none" signature="MCCCCZ" d="M426.515 399.159 C426.515 398.298 427.043 397.61 427.702 397.61 C428.362 397.61 428.89 398.298 428.89 399.159 C428.89 400.019 428.362 400.708 427.702 400.708 C427.043 400.708 426.515 400.019 426.515 399.159 Z"/>
   <path id="path11155" stroke-width="4.0" stroke="#1a466e" clip-path="url(#clipPath8)" fill="none" signature="MCCCCZ" d="M400.671 457.505 C400.671 456.644 401.199 455.956 401.859 455.956 C402.518 455.956 403.046 456.644 403.046 457.505 C403.046 458.365 402.518 459.054 401.859 459.054 C401.199 459.054 400.671 458.365 400.671 457.505 Z"/>
   <path id="path11157" stroke-width="4.0" stroke="#1a466e" clip-path="url(#clipPath8)" fill="none" signature="MCCCCZ" d="M386.143 458.709 C386.143 457.849 386.702 457.16 387.4 457.16 C388.099 457.16 388.658 457.849 388.658 458.709 C388.658 459.57 388.099 460.258 387.4 460.258 C386.702 460.258 386.143 459.57 386.143 458.709 Z"/>
   <path id="path11159" stroke-width="4.0" stroke="#1a466e" clip-path="url(#clipPath8)" fill="none" signature="MCCCCZ" d="M403.186 419.64 C403.186 418.779 403.714 418.091 404.373 418.091 C405.033 418.091 405.561 418.779 405.561 419.64 C405.561 420.501 405.033 421.189 404.373 421.189 C403.714 421.189 403.186 420.501 403.186 419.64 Z"/>
   <path id="path11161" stroke-width="4.0" stroke="#1a466e" clip-path="url(#clipPath8)" fill="none" signature="MCCCCZ" d="M401.23 427.213 C401.23 426.352 401.789 425.664 402.487 425.664 C403.186 425.664 403.745 426.352 403.745 427.213 C403.745 428.073 403.186 428.762 402.487 428.762 C401.789 428.762 401.23 428.073 401.23 427.213 Z"/>
   <path id="path11163" stroke-width="4.0" stroke="#1a466e" clip-path="url(#clipPath8)" fill="none" signature="MCCCCZ" d="M430.566 411.723 C430.566 410.862 431.125 410.174 431.823 410.174 C432.522 410.174 433.08 410.862 433.08 411.723 C433.08 412.583 432.522 413.272 431.823 413.272 C431.125 413.272 430.566 412.583 430.566 411.723 Z"/>
   <path id="path11165" stroke-width="4.0" stroke="#1a466e" clip-path="url(#clipPath8)" fill="none" signature="MCCCCZ" d="M442.021 442.359 C442.021 441.498 442.58 440.81 443.278 440.81 C443.977 440.81 444.535 441.498 444.535 442.359 C444.535 443.219 443.977 443.908 443.278 443.908 C442.58 443.908 442.021 443.219 442.021 442.359 Z"/>
   <path id="path11167" stroke-width="4.0" stroke="#1a466e" clip-path="url(#clipPath8)" fill="none" signature="MCCCCZ" d="M419.251 426.008 C419.251 425.148 419.809 424.459 420.508 424.459 C421.206 424.459 421.765 425.148 421.765 426.008 C421.765 426.869 421.206 427.557 420.508 427.557 C419.809 427.557 419.251 426.869 419.251 426.008 Z"/>
   <path id="path11169" stroke-width="4.0" stroke="#1a466e" clip-path="url(#clipPath8)" fill="none" signature="MCCCCZ" d="M453.615 437.712 C453.615 436.851 454.174 436.163 454.873 436.163 C455.571 436.163 456.13 436.851 456.13 437.712 C456.13 438.572 455.571 439.261 454.873 439.261 C454.174 439.261 453.615 438.572 453.615 437.712 Z"/>
   <path id="path11171" stroke-width="4.0" stroke="#1a466e" clip-path="url(#clipPath8)" fill="none" signature="MCCCCZ" d="M419.53 434.442 C419.53 433.581 420.089 432.893 420.787 432.893 C421.486 432.893 422.045 433.581 422.045 434.442 C422.045 435.302 421.486 435.991 420.787 435.991 C420.089 435.991 419.53 435.302 419.53 434.442 Z"/>
   <path id="path11173" stroke-width="4.0" stroke="#1a466e" clip-path="url(#clipPath8)" fill="none" signature="MCCCCZ" d="M426.794 406.043 C426.794 405.183 427.353 404.494 428.051 404.494 C428.75 404.494 429.309 405.183 429.309 406.043 C429.309 406.904 428.75 407.592 428.051 407.592 C427.353 407.592 426.794 406.904 426.794 406.043 Z"/>
   <path id="path11175" stroke-width="4.0" stroke="#000000" clip-path="url(#clipPath8)" fill="none" signature="ML" d="M424.28 364.737 L422.464 368.179 "/>
   <path id="path11177" stroke-width="4.0" stroke="#000000" clip-path="url(#clipPath8)" fill="none" signature="ML" d="M421.625 369.9 L419.809 373.514 "/>
   <path id="path11179" stroke-width="4.0" stroke="#000000" clip-path="url(#clipPath8)" fill="none" signature="ML" d="M418.971 375.235 L417.155 378.678 "/>
   <path id="path11181" stroke-width="4.0" stroke="#000000" clip-path="url(#clipPath8)" fill="none" signature="ML" d="M416.317 380.399 L414.501 384.013 "/>
   <path id="path11183" stroke-width="4.0" stroke="#000000" clip-path="url(#clipPath8)" fill="none" signature="ML" d="M413.663 385.734 L411.847 389.176 "/>
   <path id="path11185" stroke-width="4.0" stroke="#000000" clip-path="url(#clipPath8)" fill="none" signature="ML" d="M411.009 391.07 L409.193 394.512 "/>
   <path id="path11187" stroke-width="4.0" stroke="#000000" clip-path="url(#clipPath8)" fill="none" signature="ML" d="M408.355 396.233 L406.678 399.675 "/>
   <path id="path11189" stroke-width="4.0" stroke="#000000" clip-path="url(#clipPath8)" fill="none" signature="ML" d="M405.7 401.568 L404.024 405.011 "/>
   <path id="path11191" stroke-width="4.0" stroke="#000000" clip-path="url(#clipPath8)" fill="none" signature="ML" d="M403.046 406.732 L401.37 410.346 "/>
   <path id="path11193" stroke-width="4.0" stroke="#000000" clip-path="url(#clipPath8)" fill="none" signature="ML" d="M400.392 412.067 L398.716 415.509 "/>
   <path id="path11195" stroke-width="4.0" stroke="#000000" clip-path="url(#clipPath8)" fill="none" signature="ML" d="M397.738 417.23 L396.061 420.845 "/>
   <path id="path11197" stroke-width="4.0" stroke="#000000" clip-path="url(#clipPath8)" fill="none" signature="ML" d="M395.223 422.566 L393.407 426.008 "/>
   <path id="path11199" stroke-width="4.0" stroke="#000000" clip-path="url(#clipPath8)" fill="none" signature="ML" d="M392.569 427.901 L390.753 431.344 "/>
   <path id="path11201" stroke-width="4.0" stroke="#000000" clip-path="url(#clipPath8)" fill="none" signature="ML" d="M389.915 433.065 L388.099 436.679 "/>
   <path id="path11203" stroke-width="4.0" stroke="#000000" clip-path="url(#clipPath8)" fill="none" signature="ML" d="M387.261 438.4 L385.445 441.842 "/>
   <path id="path11205" stroke-width="4.0" stroke="#000000" clip-path="url(#clipPath8)" fill="none" signature="ML" d="M384.607 443.563 L382.791 447.178 "/>
   <path id="path11207" stroke-width="4.0" stroke="#000000" clip-path="url(#clipPath8)" fill="none" signature="ML" d="M381.952 448.899 L380.136 452.341 "/>
   <path id="path11209" stroke-width="4.0" stroke="#000000" clip-path="url(#clipPath8)" fill="none" signature="ML" d="M379.298 454.234 L377.482 457.677 "/>
   <path id="path11211" stroke-width="4.0" stroke="#000000" clip-path="url(#clipPath8)" fill="none" signature="ML" d="M376.644 459.398 L374.828 463.012 "/>
   <path id="path11213" stroke-width="4.0" stroke="#000000" clip-path="url(#clipPath8)" fill="none" signature="ML" d="M373.99 464.733 L372.313 468.175 "/>
   <path id="path11215" stroke-width="4.0" stroke="#000000" clip-path="url(#clipPath8)" fill="none" signature="ML" d="M371.336 469.896 L369.659 473.511 "/>
   <path id="path11217" stroke-width="4.0" stroke="#000000" clip-path="url(#clipPath8)" fill="none" signature="ML" d="M368.681 475.232 L367.005 478.674 "/>
   <path id="path11219" stroke-width="4.0" stroke="#000000" clip-path="url(#clipPath8)" fill="none" signature="ML" d="M366.027 480.395 L364.351 484.01 "/>
   <path id="path11221" stroke-width="4.0" stroke="#000000" clip-path="url(#clipPath8)" fill="none" signature="ML" d="M363.373 485.731 L361.697 489.173 "/>
   <path id="path11223" stroke-width="4.0" stroke="#000000" clip-path="url(#clipPath8)" fill="none" signature="ML" d="M360.719 491.066 L359.043 494.508 "/>
   <path id="path11225" stroke-width="4.0" stroke="#000000" clip-path="url(#clipPath8)" fill="none" signature="ML" d="M358.204 496.229 L358.065 496.229 "/>
   <path id="path11227" stroke-width="4.0" stroke="#000000" clip-path="url(#clipPath8)" fill="none" signature="ML" d="M424.28 364.737 L425.956 368.179 "/>
   <path id="path11229" stroke-width="4.0" stroke="#000000" clip-path="url(#clipPath8)" fill="none" signature="ML" d="M426.934 369.9 L428.61 373.514 "/>
   <path id="path11231" stroke-width="4.0" stroke="#000000" clip-path="url(#clipPath8)" fill="none" signature="ML" d="M429.588 375.235 L431.264 378.678 "/>
   <path id="path11233" stroke-width="4.0" stroke="#000000" clip-path="url(#clipPath8)" fill="none" signature="ML" d="M432.103 380.399 L433.919 384.013 "/>
   <path id="path11235" stroke-width="4.0" stroke="#000000" clip-path="url(#clipPath8)" fill="none" signature="ML" d="M434.757 385.734 L436.573 389.176 "/>
   <path id="path11237" stroke-width="4.0" stroke="#000000" clip-path="url(#clipPath8)" fill="none" signature="ML" d="M437.411 391.07 L439.227 394.512 "/>
   <path id="path11239" stroke-width="4.0" stroke="#000000" clip-path="url(#clipPath8)" fill="none" signature="ML" d="M440.065 396.233 L441.881 399.675 "/>
   <path id="path11241" stroke-width="4.0" stroke="#000000" clip-path="url(#clipPath8)" fill="none" signature="ML" d="M442.719 401.568 L444.535 405.011 "/>
   <path id="path11243" stroke-width="4.0" stroke="#000000" clip-path="url(#clipPath8)" fill="none" signature="ML" d="M445.373 406.732 L447.189 410.346 "/>
   <path id="path11245" stroke-width="4.0" stroke="#000000" clip-path="url(#clipPath8)" fill="none" signature="ML" d="M448.028 412.067 L449.844 415.509 "/>
   <path id="path11247" stroke-width="4.0" stroke="#000000" clip-path="url(#clipPath8)" fill="none" signature="ML" d="M450.682 417.23 L452.498 420.845 "/>
   <path id="path11249" stroke-width="4.0" stroke="#000000" clip-path="url(#clipPath8)" fill="none" signature="ML" d="M453.336 422.566 L455.012 426.008 "/>
   <path id="path11251" stroke-width="4.0" stroke="#000000" clip-path="url(#clipPath8)" fill="none" signature="ML" d="M455.99 427.901 L457.667 431.344 "/>
   <path id="path11253" stroke-width="4.0" stroke="#000000" clip-path="url(#clipPath8)" fill="none" signature="ML" d="M458.644 433.065 L460.321 436.679 "/>
   <path id="path11255" stroke-width="4.0" stroke="#000000" clip-path="url(#clipPath8)" fill="none" signature="ML" d="M461.299 438.4 L462.975 441.842 "/>
   <path id="path11257" stroke-width="4.0" stroke="#000000" clip-path="url(#clipPath8)" fill="none" signature="ML" d="M463.953 443.563 L465.629 447.178 "/>
   <path id="path11259" stroke-width="4.0" stroke="#000000" clip-path="url(#clipPath8)" fill="none" signature="ML" d="M466.467 448.899 L468.283 452.341 "/>
   <path id="path11261" stroke-width="4.0" stroke="#000000" clip-path="url(#clipPath8)" fill="none" signature="ML" d="M469.121 454.234 L470.938 457.677 "/>
   <path id="path11263" stroke-width="4.0" stroke="#000000" clip-path="url(#clipPath8)" fill="none" signature="ML" d="M471.776 459.398 L473.592 463.012 "/>
   <path id="path11265" stroke-width="4.0" stroke="#000000" clip-path="url(#clipPath8)" fill="none" signature="ML" d="M474.43 464.733 L476.246 468.175 "/>
   <path id="path11267" stroke-width="4.0" stroke="#000000" clip-path="url(#clipPath8)" fill="none" signature="ML" d="M477.084 469.896 L478.9 473.511 "/>
   <path id="path11269" stroke-width="4.0" stroke="#000000" clip-path="url(#clipPath8)" fill="none" signature="ML" d="M479.738 475.232 L481.554 478.674 "/>
   <path id="path11271" stroke-width="4.0" stroke="#000000" clip-path="url(#clipPath8)" fill="none" signature="ML" d="M482.392 480.395 L484.208 484.01 "/>
   <path id="path11273" stroke-width="4.0" stroke="#000000" clip-path="url(#clipPath8)" fill="none" signature="ML" d="M485.047 485.731 L486.863 489.173 "/>
   <path id="path11275" stroke-width="4.0" stroke="#000000" clip-path="url(#clipPath8)" fill="none" signature="ML" d="M487.701 491.066 L489.517 494.508 "/>
   <path id="path11277" stroke-width="4.0" stroke="#000000" clip-path="url(#clipPath8)" fill="none" signature="ML" d="M490.355 496.229 L490.355 496.229 "/>
   <path id="path11279" stroke-width="4.0" stroke="#000000" clip-path="url(#clipPath8)" fill="none" signature="ML" d="M424.28 364.737 L424.28 496.23 "/>
   <path id="path11281" stroke-width="2.0" stroke="#000000" clip-path="url(#clipPath8)" fill="none" signature="ML" d="M322.722 520.841 L322.722 360.09 "/>
   <path id="path11283" stroke-width="2.0" stroke="#000000" clip-path="url(#clipPath8)" fill="none" signature="ML" d="M322.722 364.737 L320.347 364.737 "/>
   <path id="path11287" stroke-width="2.0" stroke="#000000" clip-path="url(#clipPath8)" fill="none" signature="ML" d="M322.722 402.601 L320.347 402.601 "/>
   <path id="path11293" stroke-width="2.0" stroke="#000000" clip-path="url(#clipPath8)" fill="none" signature="ML" d="M322.722 440.466 L320.347 440.466 "/>
   <path id="path11299" stroke-width="2.0" stroke="#000000" clip-path="url(#clipPath8)" fill="none" signature="ML" d="M322.722 478.503 L320.347 478.503 "/>
   <path id="path11305" stroke-width="2.0" stroke="#000000" clip-path="url(#clipPath8)" fill="none" signature="ML" d="M322.722 516.366 L320.347 516.366 "/>
   <path id="path11329" stroke-width="2.0" stroke="#000000" clip-path="url(#clipPath8)" fill="none" signature="ML" d="M322.722 520.842 L524.44 520.842 "/>
   <path id="path11331" stroke-width="2.0" stroke="#000000" clip-path="url(#clipPath8)" fill="none" signature="ML" d="M326.354 520.842 L326.354 523.768 "/>
   <path id="path11337" stroke-width="2.0" stroke="#000000" clip-path="url(#clipPath8)" fill="none" signature="ML" d="M374.968 520.842 L374.968 523.768 "/>
   <path id="path11343" stroke-width="2.0" stroke="#000000" clip-path="url(#clipPath8)" fill="none" signature="ML" d="M423.581 520.842 L423.581 523.769 "/>
   <path id="path11347" stroke-width="2.0" stroke="#000000" clip-path="url(#clipPath8)" fill="none" signature="ML" d="M472.195 520.842 L472.195 523.769 "/>
   <path id="path11351" stroke-width="2.0" stroke="#000000" clip-path="url(#clipPath8)" fill="none" signature="ML" d="M520.808 520.842 L520.808 523.769 "/>
   <text id="text11285" font-weight="normal" font-family="Helvetica" svgx:width="556.0" svgx:fontName="SWHEEG+ArialMT" clip-path="url(#clipPath8)" fill="#000000" stroke="none" transform="matrix(0.0,-1.0,1.0,0.0,-49.47702,684.12619)" x="317.325" y="366.802" font-size="6.512" xmlns:svgx="http://www.xml-cml.org/schema/svgx">0</text>
   <text id="text11289" font-weight="normal" font-family="Helvetica" svgx:width="278.0" svgx:fontName="SWHEEG+ArialMT" clip-path="url(#clipPath8)" fill="#000000" stroke="none" transform="matrix(0.0,-1.0,1.0,0.0,-88.20212,722.85129)" x="317.325" y="405.527" font-size="6.512" xmlns:svgx="http://www.xml-cml.org/schema/svgx">.</text>
   <text id="text11291" font-weight="normal" font-family="Helvetica" svgx:width="556.0" svgx:fontName="SWHEEG+ArialMT" clip-path="url(#clipPath8)" fill="#000000" stroke="none" transform="matrix(0.0,-1.0,1.0,0.0,-86.1347,720.78387)" x="317.325" y="403.459" font-size="6.512" xmlns:svgx="http://www.xml-cml.org/schema/svgx">2</text>
   <text id="text11295" font-weight="normal" font-family="Helvetica" svgx:width="278.0" svgx:fontName="SWHEEG+ArialMT" clip-path="url(#clipPath8)" fill="#000000" stroke="none" transform="matrix(0.0,-1.0,1.0,0.0,-126.0668,760.71597)" x="317.325" y="443.391" font-size="6.512" xmlns:svgx="http://www.xml-cml.org/schema/svgx">.</text>
   <text id="text11297" font-weight="normal" font-family="Helvetica" svgx:width="556.0" svgx:fontName="SWHEEG+ArialMT" clip-path="url(#clipPath8)" fill="#000000" stroke="none" transform="matrix(0.0,-1.0,1.0,0.0,-123.99939,758.64856)" x="317.325" y="441.324" font-size="6.512" xmlns:svgx="http://www.xml-cml.org/schema/svgx">4</text>
   <text id="text11301" font-weight="normal" font-family="Helvetica" svgx:width="278.0" svgx:fontName="SWHEEG+ArialMT" clip-path="url(#clipPath8)" fill="#000000" stroke="none" transform="matrix(0.0,-1.0,1.0,0.0,-164.10352,798.75269)" x="317.325" y="481.428" font-size="6.512" xmlns:svgx="http://www.xml-cml.org/schema/svgx">.</text>
   <text id="text11303" font-weight="normal" font-family="Helvetica" svgx:width="556.0" svgx:fontName="SWHEEG+ArialMT" clip-path="url(#clipPath8)" fill="#000000" stroke="none" transform="matrix(0.0,-1.0,1.0,0.0,-162.0361,796.68527)" x="317.325" y="479.361" font-size="6.512" xmlns:svgx="http://www.xml-cml.org/schema/svgx">6</text>
   <text id="text11307" font-weight="normal" font-family="Helvetica" svgx:width="278.0" svgx:fontName="SWHEEG+ArialMT" clip-path="url(#clipPath8)" fill="#000000" stroke="none" transform="matrix(0.0,-1.0,1.0,0.0,-201.96802,836.61719)" x="317.325" y="519.293" font-size="6.512" xmlns:svgx="http://www.xml-cml.org/schema/svgx">.</text>
   <text id="text11309" font-weight="normal" font-family="Helvetica" svgx:width="556.0" svgx:fontName="SWHEEG+ArialMT" clip-path="url(#clipPath8)" fill="#000000" stroke="none" transform="matrix(0.0,-1.0,1.0,0.0,-199.90063,834.5498)" x="317.325" y="517.225" font-size="6.512" xmlns:svgx="http://www.xml-cml.org/schema/svgx">8</text>
   <text id="text11311" font-weight="normal" font-family="Helvetica" svgx:width="500.0" svgx:fontName="SWHEEG+ArialMT" clip-path="url(#clipPath8)" fill="#000000" stroke="none" transform="matrix(0.0,-1.0,1.0,0.0,-146.08844,767.88843)" x="310.9" y="456.988" font-size="6.512" xmlns:svgx="http://www.xml-cml.org/schema/svgx">s</text>
   <text id="text11313" font-weight="normal" font-family="Helvetica" svgx:width="556.0" svgx:fontName="SWHEEG+ArialMT" clip-path="url(#clipPath8)" fill="#000000" stroke="none" transform="matrix(0.0,-1.0,1.0,0.0,-142.47409,764.27408)" x="310.9" y="453.374" font-size="6.512" xmlns:svgx="http://www.xml-cml.org/schema/svgx">e</text>
   <text id="text11315" font-weight="normal" font-family="Helvetica" svgx:width="333.0" svgx:fontName="SWHEEG+ArialMT" clip-path="url(#clipPath8)" fill="#000000" stroke="none" transform="matrix(0.0,-1.0,1.0,0.0,-138.3436,760.14359)" x="310.9" y="449.244" font-size="6.512" xmlns:svgx="http://www.xml-cml.org/schema/svgx">(</text>
   <text id="text11317" font-weight="normal" font-family="Helvetica" svgx:width="222.0" svgx:fontName="SWHEEG+ArialMT" clip-path="url(#clipPath8)" fill="#000000" stroke="none" transform="matrix(0.0,-1.0,1.0,0.0,-135.93353,757.73352)" x="310.9" y="446.834" font-size="6.512" xmlns:svgx="http://www.xml-cml.org/schema/svgx">l</text>
   <text id="text11319" font-weight="normal" font-family="Helvetica" svgx:width="556.0" svgx:fontName="SWHEEG+ArialMT" clip-path="url(#clipPath8)" fill="#000000" stroke="none" transform="matrix(0.0,-1.0,1.0,0.0,-134.3866,756.18658)" x="310.9" y="445.287" font-size="6.512" xmlns:svgx="http://www.xml-cml.org/schema/svgx">o</text>
   <text id="text11321" font-weight="normal" font-family="Helvetica" svgx:width="556.0" svgx:fontName="SWHEEG+ArialMT" clip-path="url(#clipPath8)" fill="#000000" stroke="none" transform="matrix(0.0,-1.0,1.0,0.0,-130.2561,752.05609)" x="310.9" y="441.156" font-size="6.512" xmlns:svgx="http://www.xml-cml.org/schema/svgx">g</text>
   <text id="text11323" font-weight="normal" font-family="Helvetica" svgx:width="778.0" svgx:fontName="SWHEEG+ArialMT" clip-path="url(#clipPath8)" fill="#000000" stroke="none" transform="matrix(0.0,-1.0,1.0,0.0,-126.29477,748.09476)" x="310.9" y="437.195" font-size="6.512" xmlns:svgx="http://www.xml-cml.org/schema/svgx">O</text>
   <text id="text11325" font-weight="normal" font-family="Helvetica" svgx:width="722.0" svgx:fontName="SWHEEG+ArialMT" clip-path="url(#clipPath8)" fill="#000000" stroke="none" transform="matrix(0.0,-1.0,1.0,0.0,-120.61517,742.41516)" x="310.9" y="431.515" font-size="6.512" xmlns:svgx="http://www.xml-cml.org/schema/svgx">R</text>
   <text id="text11327" font-weight="normal" font-family="Helvetica" svgx:width="333.0" svgx:fontName="SWHEEG+ArialMT" clip-path="url(#clipPath8)" fill="#000000" stroke="none" transform="matrix(0.0,-1.0,1.0,0.0,-115.45389,737.25388)" x="310.9" y="426.354" font-size="6.512" xmlns:svgx="http://www.xml-cml.org/schema/svgx">)</text>
   <text id="text11333" font-weight="normal" font-family="Helvetica" svgx:width="333.0" svgx:fontName="SWHEEG+ArialMT" clip-path="url(#clipPath8)" fill="#000000" stroke="none" x="323.84" y="532.416" font-size="6.512" xmlns:svgx="http://www.xml-cml.org/schema/svgx">-</text>
   <text id="text11335" font-weight="normal" font-family="Helvetica" svgx:width="556.0" svgx:fontName="SWHEEG+ArialMT" clip-path="url(#clipPath8)" fill="#000000" stroke="none" x="325.793" y="532.416" font-size="6.512" xmlns:svgx="http://www.xml-cml.org/schema/svgx">2</text>
   <text id="text11339" font-weight="normal" font-family="Helvetica" svgx:width="333.0" svgx:fontName="SWHEEG+ArialMT" clip-path="url(#clipPath8)" fill="#000000" stroke="none" x="372.453" y="532.416" font-size="6.512" xmlns:svgx="http://www.xml-cml.org/schema/svgx">-</text>
   <text id="text11341" font-weight="normal" font-family="Helvetica" svgx:width="556.0" svgx:fontName="SWHEEG+ArialMT" clip-path="url(#clipPath8)" fill="#000000" stroke="none" x="374.407" y="532.416" font-size="6.512" xmlns:svgx="http://www.xml-cml.org/schema/svgx">1</text>
   <text id="text11345" font-weight="normal" font-family="Helvetica" svgx:width="556.0" svgx:fontName="SWHEEG+ArialMT" clip-path="url(#clipPath8)" fill="#000000" stroke="none" x="422.044" y="532.416" font-size="6.512" xmlns:svgx="http://www.xml-cml.org/schema/svgx">0</text>
   <text id="text11349" font-weight="normal" font-family="Helvetica" svgx:width="556.0" svgx:fontName="SWHEEG+ArialMT" clip-path="url(#clipPath8)" fill="#000000" stroke="none" x="470.658" y="532.416" font-size="6.512" xmlns:svgx="http://www.xml-cml.org/schema/svgx">1</text>
   <text id="text11353" font-weight="normal" font-family="Helvetica" svgx:width="556.0" svgx:fontName="SWHEEG+ArialMT" clip-path="url(#clipPath8)" fill="#000000" stroke="none" x="519.272" y="532.417" font-size="6.512" xmlns:svgx="http://www.xml-cml.org/schema/svgx">2</text>
   <text id="text11355" font-weight="normal" font-family="Helvetica" svgx:width="222.0" svgx:fontName="SWHEEG+ArialMT" clip-path="url(#clipPath8)" fill="#000000" stroke="none" x="417.155" y="537.944" font-size="6.512" xmlns:svgx="http://www.xml-cml.org/schema/svgx">l</text>
   <text id="text11357" font-weight="normal" font-family="Helvetica" svgx:width="556.0" svgx:fontName="SWHEEG+ArialMT" clip-path="url(#clipPath8)" fill="#000000" stroke="none" x="418.411" y="537.944" font-size="6.512" xmlns:svgx="http://www.xml-cml.org/schema/svgx">o</text>
   <text id="text11359" font-weight="normal" font-family="Helvetica" svgx:width="556.0" svgx:fontName="SWHEEG+ArialMT" clip-path="url(#clipPath8)" fill="#000000" stroke="none" x="421.763" y="537.944" font-size="6.512" xmlns:svgx="http://www.xml-cml.org/schema/svgx">g</text>
   <text id="text11361" font-weight="normal" font-family="Helvetica" svgx:width="556.0" svgx:fontName="SWHEEG+ArialMT" clip-path="url(#clipPath8)" fill="#000000" stroke="none" x="424.979" y="537.944" font-size="6.512" xmlns:svgx="http://www.xml-cml.org/schema/svgx">o</text>
   <text id="text11363" font-weight="normal" font-family="Helvetica" svgx:width="333.0" svgx:fontName="SWHEEG+ArialMT" clip-path="url(#clipPath8)" fill="#000000" stroke="none" x="428.331" y="537.944" font-size="6.512" xmlns:svgx="http://www.xml-cml.org/schema/svgx">r</text>
   <text id="text11365" font-weight="normal" font-family="Helvetica" svgx:width="611.0" svgx:fontName="SWHEEG+ArialMT" clip-path="url(#clipPath8)" fill="#000000" stroke="none" x="358.204" y="356.316" font-size="7.133" xmlns:svgx="http://www.xml-cml.org/schema/svgx">F</text>
   <text id="text11367" font-weight="normal" font-family="Helvetica" svgx:width="556.0" svgx:fontName="SWHEEG+ArialMT" clip-path="url(#clipPath8)" fill="#000000" stroke="none" x="362.116" y="356.316" font-size="7.133" xmlns:svgx="http://www.xml-cml.org/schema/svgx">u</text>
   <text id="text11369" font-weight="normal" font-family="Helvetica" svgx:width="556.0" svgx:fontName="SWHEEG+ArialMT" clip-path="url(#clipPath8)" fill="#000000" stroke="none" x="365.605" y="356.316" font-size="7.133" xmlns:svgx="http://www.xml-cml.org/schema/svgx">n</text>
   <text id="text11371" font-weight="normal" font-family="Helvetica" svgx:width="556.0" svgx:fontName="SWHEEG+ArialMT" clip-path="url(#clipPath8)" fill="#000000" stroke="none" x="369.237" y="356.316" font-size="7.133" xmlns:svgx="http://www.xml-cml.org/schema/svgx">n</text>
   <text id="text11373" font-weight="normal" font-family="Helvetica" svgx:width="556.0" svgx:fontName="SWHEEG+ArialMT" clip-path="url(#clipPath8)" fill="#000000" stroke="none" x="372.726" y="356.316" font-size="7.133" xmlns:svgx="http://www.xml-cml.org/schema/svgx">e</text>
   <text id="text11375" font-weight="normal" font-family="Helvetica" svgx:width="222.0" svgx:fontName="SWHEEG+ArialMT" clip-path="url(#clipPath8)" fill="#000000" stroke="none" x="376.215" y="356.316" font-size="7.133" xmlns:svgx="http://www.xml-cml.org/schema/svgx">l</text>
   <text id="text11379" font-weight="normal" font-family="Helvetica" svgx:width="556.0" svgx:fontName="SWHEEG+ArialMT" clip-path="url(#clipPath8)" fill="#000000" stroke="none" x="379.431" y="356.316" font-size="7.133" xmlns:svgx="http://www.xml-cml.org/schema/svgx">p</text>
   <text id="text11381" font-weight="normal" font-family="Helvetica" svgx:width="222.0" svgx:fontName="SWHEEG+ArialMT" clip-path="url(#clipPath8)" fill="#000000" stroke="none" x="382.92" y="356.316" font-size="7.133" xmlns:svgx="http://www.xml-cml.org/schema/svgx">l</text>
   <text id="text11383" font-weight="normal" font-family="Helvetica" svgx:width="556.0" svgx:fontName="SWHEEG+ArialMT" clip-path="url(#clipPath8)" fill="#000000" stroke="none" x="384.317" y="356.316" font-size="7.133" xmlns:svgx="http://www.xml-cml.org/schema/svgx">o</text>
   <text id="text11385" font-weight="normal" font-family="Helvetica" svgx:width="278.0" svgx:fontName="SWHEEG+ArialMT" clip-path="url(#clipPath8)" fill="#000000" stroke="none" x="387.949" y="356.316" font-size="7.133" xmlns:svgx="http://www.xml-cml.org/schema/svgx">t</text>
   <text id="text11389" font-weight="normal" font-family="Helvetica" svgx:width="722.0" svgx:fontName="SWHEEG+ArialMT" clip-path="url(#clipPath8)" fill="#000000" stroke="none" x="391.584" y="356.316" font-size="7.133" xmlns:svgx="http://www.xml-cml.org/schema/svgx">w</text>
   <text id="text11391" font-weight="normal" font-family="Helvetica" svgx:width="222.0" svgx:fontName="SWHEEG+ArialMT" clip-path="url(#clipPath8)" fill="#000000" stroke="none" x="396.054" y="356.316" font-size="7.133" xmlns:svgx="http://www.xml-cml.org/schema/svgx">i</text>
   <text id="text11393" font-weight="normal" font-family="Helvetica" svgx:width="278.0" svgx:fontName="SWHEEG+ArialMT" clip-path="url(#clipPath8)" fill="#000000" stroke="none" x="397.451" y="356.316" font-size="7.133" xmlns:svgx="http://www.xml-cml.org/schema/svgx">t</text>
   <text id="text11395" font-weight="normal" font-family="Helvetica" svgx:width="556.0" svgx:fontName="SWHEEG+ArialMT" clip-path="url(#clipPath8)" fill="#000000" stroke="none" x="399.267" y="356.316" font-size="7.133" xmlns:svgx="http://www.xml-cml.org/schema/svgx">h</text>
   <text id="text11399" font-weight="normal" font-family="Helvetica" svgx:width="556.0" svgx:fontName="SWHEEG+ArialMT" clip-path="url(#clipPath8)" fill="#000000" stroke="none" x="404.575" y="356.316" font-size="7.133" xmlns:svgx="http://www.xml-cml.org/schema/svgx">p</text>
   <text id="text11401" font-weight="normal" font-family="Helvetica" svgx:width="500.0" svgx:fontName="SWHEEG+ArialMT" clip-path="url(#clipPath8)" fill="#000000" stroke="none" x="408.064" y="356.316" font-size="7.133" xmlns:svgx="http://www.xml-cml.org/schema/svgx">s</text>
   <text id="text11403" font-weight="normal" font-family="Helvetica" svgx:width="556.0" svgx:fontName="SWHEEG+ArialMT" clip-path="url(#clipPath8)" fill="#000000" stroke="none" x="411.277" y="356.316" font-size="7.133" xmlns:svgx="http://www.xml-cml.org/schema/svgx">e</text>
   <text id="text11405" font-weight="normal" font-family="Helvetica" svgx:width="556.0" svgx:fontName="SWHEEG+ArialMT" clip-path="url(#clipPath8)" fill="#000000" stroke="none" x="414.909" y="356.316" font-size="7.133" xmlns:svgx="http://www.xml-cml.org/schema/svgx">u</text>
   <text id="text11407" font-weight="normal" font-family="Helvetica" svgx:width="556.0" svgx:fontName="SWHEEG+ArialMT" clip-path="url(#clipPath8)" fill="#000000" stroke="none" x="418.398" y="356.316" font-size="7.133" xmlns:svgx="http://www.xml-cml.org/schema/svgx">d</text>
   <text id="text11409" font-weight="normal" font-family="Helvetica" svgx:width="556.0" svgx:fontName="SWHEEG+ArialMT" clip-path="url(#clipPath8)" fill="#000000" stroke="none" x="421.888" y="356.316" font-size="7.133" xmlns:svgx="http://www.xml-cml.org/schema/svgx">o</text>
   <text id="text11413" font-weight="normal" font-family="Helvetica" svgx:width="556.0" svgx:fontName="SWHEEG+ArialMT" clip-path="url(#clipPath8)" fill="#000000" stroke="none" x="427.339" y="356.316" font-size="7.133" xmlns:svgx="http://www.xml-cml.org/schema/svgx">9</text>
   <text id="text11415" font-weight="normal" font-family="Helvetica" svgx:width="556.0" svgx:fontName="SWHEEG+ArialMT" clip-path="url(#clipPath8)" fill="#000000" stroke="none" x="430.828" y="356.316" font-size="7.133" xmlns:svgx="http://www.xml-cml.org/schema/svgx">5</text>
   <text id="text11417" font-weight="normal" font-family="Helvetica" svgx:width="889.0" svgx:fontName="SWHEEG+ArialMT" clip-path="url(#clipPath8)" fill="#000000" stroke="none" x="434.317" y="356.316" font-size="7.133" xmlns:svgx="http://www.xml-cml.org/schema/svgx">%</text>
   <text id="text11421" font-weight="normal" font-family="Helvetica" svgx:width="500.0" svgx:fontName="SWHEEG+ArialMT" clip-path="url(#clipPath8)" fill="#000000" stroke="none" x="441.863" y="356.316" font-size="7.133" xmlns:svgx="http://www.xml-cml.org/schema/svgx">c</text>
   <text id="text11423" font-weight="normal" font-family="Helvetica" svgx:width="556.0" svgx:fontName="SWHEEG+ArialMT" clip-path="url(#clipPath8)" fill="#000000" stroke="none" x="445.076" y="356.316" font-size="7.133" xmlns:svgx="http://www.xml-cml.org/schema/svgx">o</text>
   <text id="text11425" font-weight="normal" font-family="Helvetica" svgx:width="556.0" svgx:fontName="SWHEEG+ArialMT" clip-path="url(#clipPath8)" fill="#000000" stroke="none" x="448.565" y="356.316" font-size="7.133" xmlns:svgx="http://www.xml-cml.org/schema/svgx">n</text>
   <text id="text11427" font-weight="normal" font-family="Helvetica" svgx:width="278.0" svgx:fontName="SWHEEG+ArialMT" clip-path="url(#clipPath8)" fill="#000000" stroke="none" x="452.197" y="356.316" font-size="7.133" xmlns:svgx="http://www.xml-cml.org/schema/svgx">f</text>
   <text id="text11429" font-weight="normal" font-family="Helvetica" svgx:width="222.0" svgx:fontName="SWHEEG+ArialMT" clip-path="url(#clipPath8)" fill="#000000" stroke="none" x="454.013" y="356.316" font-size="7.133" xmlns:svgx="http://www.xml-cml.org/schema/svgx">i</text>
   <text id="text11431" font-weight="normal" font-family="Helvetica" svgx:width="556.0" svgx:fontName="SWHEEG+ArialMT" clip-path="url(#clipPath8)" fill="#000000" stroke="none" x="455.41" y="356.316" font-size="7.133" xmlns:svgx="http://www.xml-cml.org/schema/svgx">d</text>
   <text id="text11433" font-weight="normal" font-family="Helvetica" svgx:width="556.0" svgx:fontName="SWHEEG+ArialMT" clip-path="url(#clipPath8)" fill="#000000" stroke="none" x="458.9" y="356.316" font-size="7.133" xmlns:svgx="http://www.xml-cml.org/schema/svgx">e</text>
   <text id="text11435" font-weight="normal" font-family="Helvetica" svgx:width="556.0" svgx:fontName="SWHEEG+ArialMT" clip-path="url(#clipPath8)" fill="#000000" stroke="none" x="462.531" y="356.316" font-size="7.133" xmlns:svgx="http://www.xml-cml.org/schema/svgx">n</text>
   <text id="text11437" font-weight="normal" font-family="Helvetica" svgx:width="500.0" svgx:fontName="SWHEEG+ArialMT" clip-path="url(#clipPath8)" fill="#000000" stroke="none" x="466.021" y="356.316" font-size="7.133" xmlns:svgx="http://www.xml-cml.org/schema/svgx">c</text>
   <text id="text11439" font-weight="normal" font-family="Helvetica" svgx:width="556.0" svgx:fontName="SWHEEG+ArialMT" clip-path="url(#clipPath8)" fill="#000000" stroke="none" x="469.234" y="356.316" font-size="7.133" xmlns:svgx="http://www.xml-cml.org/schema/svgx">e</text>
   <text id="text11443" font-weight="normal" font-family="Helvetica" svgx:width="222.0" svgx:fontName="SWHEEG+ArialMT" clip-path="url(#clipPath8)" fill="#000000" stroke="none" x="474.541" y="356.316" font-size="7.133" xmlns:svgx="http://www.xml-cml.org/schema/svgx">l</text>
   <text id="text11445" font-weight="normal" font-family="Helvetica" svgx:width="222.0" svgx:fontName="SWHEEG+ArialMT" clip-path="url(#clipPath8)" fill="#000000" stroke="none" x="475.938" y="356.316" font-size="7.133" xmlns:svgx="http://www.xml-cml.org/schema/svgx">i</text>
   <text id="text11447" font-weight="normal" font-family="Helvetica" svgx:width="833.0" svgx:fontName="SWHEEG+ArialMT" clip-path="url(#clipPath8)" fill="#000000" stroke="none" x="477.335" y="356.316" font-size="7.133" xmlns:svgx="http://www.xml-cml.org/schema/svgx">m</text>
   <text id="text11449" font-weight="normal" font-family="Helvetica" svgx:width="222.0" svgx:fontName="SWHEEG+ArialMT" clip-path="url(#clipPath8)" fill="#000000" stroke="none" x="482.643" y="356.316" font-size="7.133" xmlns:svgx="http://www.xml-cml.org/schema/svgx">i</text>
   <text id="text11451" font-weight="normal" font-family="Helvetica" svgx:width="278.0" svgx:fontName="SWHEEG+ArialMT" clip-path="url(#clipPath8)" fill="#000000" stroke="none" x="484.04" y="356.316" font-size="7.133" xmlns:svgx="http://www.xml-cml.org/schema/svgx">t</text>
   <text id="text11453" font-weight="normal" font-family="Helvetica" svgx:width="500.0" svgx:fontName="SWHEEG+ArialMT" clip-path="url(#clipPath8)" fill="#000000" stroke="none" x="485.857" y="356.316" font-size="7.133" xmlns:svgx="http://www.xml-cml.org/schema/svgx">s</text>
  </g>
  <g fill="orange">
   <circle fill="none" stroke="#1a466e" stroke-width="4.0" cx="448.447" cy="413.616" r="1.412" id="circle.6"/>
   <circle fill="none" stroke="#1a466e" stroke-width="4.0" cx="421.905" cy="442.531" r="1.412" id="circle.7"/>
   <circle fill="none" stroke="#1a466e" stroke-width="4.0" cx="397.319" cy="496.229" r="1.413" id="circle.8"/>
   <circle fill="none" stroke="#1a466e" stroke-width="4.0" cx="430.426" cy="422.394" r="1.413" id="circle.9"/>
   <circle fill="none" stroke="#1a466e" stroke-width="4.0" cx="402.837" cy="407.076" r="1.397" id="circle.10"/>
   <circle fill="none" stroke="#1a466e" stroke-width="4.0" cx="432.661" cy="426.352" r="1.413" id="circle.11"/>
   <circle fill="none" stroke="#1a466e" stroke-width="4.0" cx="433.011" cy="451.308" r="1.397" id="circle.12"/>
   <circle fill="none" stroke="#1a466e" stroke-width="4.0" cx="415.479" cy="432.72" r="1.412" id="circle.13"/>
   <circle fill="none" stroke="#1a466e" stroke-width="4.0" cx="422.394" cy="416.37" r="1.397" id="circle.14"/>
   <circle fill="none" stroke="#1a466e" stroke-width="4.0" cx="437.411" cy="433.409" r="1.412" id="circle.15"/>
   <circle fill="none" stroke="#1a466e" stroke-width="4.0" cx="440.554" cy="435.991" r="1.397" id="circle.16"/>
   <circle fill="none" stroke="#1a466e" stroke-width="4.0" cx="415.479" cy="429.967" r="1.412" id="circle.17"/>
   <circle fill="none" stroke="#1a466e" stroke-width="4.0" cx="427.702" cy="399.159" r="1.397" id="circle.18"/>
   <circle fill="none" stroke="#1a466e" stroke-width="4.0" cx="401.859" cy="457.505" r="1.397" id="circle.19"/>
   <circle fill="none" stroke="#1a466e" stroke-width="4.0" cx="387.4" cy="458.709" r="1.413" id="circle.20"/>
   <circle fill="none" stroke="#1a466e" stroke-width="4.0" cx="404.373" cy="419.64" r="1.397" id="circle.21"/>
   <circle fill="none" stroke="#1a466e" stroke-width="4.0" cx="402.487" cy="427.213" r="1.413" id="circle.22"/>
   <circle fill="none" stroke="#1a466e" stroke-width="4.0" cx="431.823" cy="411.723" r="1.412" id="circle.23"/>
   <circle fill="none" stroke="#1a466e" stroke-width="4.0" cx="443.278" cy="442.359" r="1.412" id="circle.24"/>
   <circle fill="none" stroke="#1a466e" stroke-width="4.0" cx="420.508" cy="426.008" r="1.412" id="circle.25"/>
   <circle fill="none" stroke="#1a466e" stroke-width="4.0" cx="454.873" cy="437.712" r="1.413" id="circle.26"/>
   <circle fill="none" stroke="#1a466e" stroke-width="4.0" cx="420.787" cy="434.442" r="1.413" id="circle.27"/>
   <circle fill="none" stroke="#1a466e" stroke-width="4.0" cx="428.051" cy="406.043" r="1.413" id="circle.28"/>
  </g>
  <g class="pathAnnotation NYI"/>
  <g class="plotBox">
   <g class="axis">
    <g class="axisTickBox">
     <rect stroke="black" x="317.722" y="510.841" width="211.71800000000007" height="28.0" stroke-width="0.2" fill="yellow" opacity="0.3"/>
     <rect stroke="black" x="326.354" y="520.842" width="194.454" height="2.927000000000021" stroke-width="0.2" fill="green" opacity="0.3"/>
    </g>
    <g class="axisTextBox">
     <rect stroke="black" x="317.722" y="510.841" width="211.71800000000007" height="28.0" stroke-width="0.2" fill="yellow" opacity="0.3"/>
     <rect stroke="black" x="323.84" y="525.9040000000001" width="199.07872000000003" height="6.51299999999992" stroke-width="0.2" fill="green" opacity="0.3"/>
    </g>
   </g>
   <g class="axis">
    <g class="axisTickBox">
     <rect stroke="black" x="304.722" y="355.09" width="28.0" height="170.75100000000003" stroke-width="0.2" fill="yellow" opacity="0.3"/>
     <rect stroke="black" x="320.347" y="364.737" width="2.375" height="151.62899999999996" stroke-width="0.2" fill="green" opacity="0.3"/>
    </g>
    <g class="axisTextBox">
     <rect stroke="black" x="304.722" y="355.09" width="28.0" height="170.75100000000003" stroke-width="0.2" fill="yellow" opacity="0.3"/>
     <rect stroke="black" x="310.8123" y="363.15446999999995" width="6.512680000000046" height="154.07033" stroke-width="0.2" fill="green" opacity="0.3"/>
    </g>
   </g>
   <g class="axis">
    <g class="axisTickBox">
     <rect stroke="black" x="317.722" y="342.09" width="211.71800000000007" height="28.0" stroke-width="0.2" fill="yellow" opacity="0.3"/>
    </g>
    <g class="axisTextBox">
     <rect stroke="black" x="317.722" y="342.09" width="211.71800000000007" height="28.0" stroke-width="0.2" fill="yellow" opacity="0.3"/>
    </g>
   </g>
   <g class="axis">
    <g class="axisTickBox">
     <rect stroke="black" x="514.44" y="355.09" width="28.0" height="170.75100000000003" stroke-width="0.2" fill="yellow" opacity="0.3"/>
    </g>
    <g class="axisTextBox">
     <rect stroke="black" x="514.44" y="355.09" width="28.0" height="170.75100000000003" stroke-width="0.2" fill="yellow" opacity="0.3"/>
    </g>
   </g>
  </g>
 </g>
</svg>
